<?xml version="1.0" encoding="UTF-8"?>
<svg width="103px" height="24px" viewBox="0 0 103 24" version="1.1" xmlns="http://www.w3.org/2000/svg" xmlns:xlink="http://www.w3.org/1999/xlink">
    <!-- Generator: Sketch 51.2 (57519) - http://www.bohemiancoding.com/sketch -->
    <title>counterstrike </title>
    <desc>Created with Sketch.</desc>
    <defs>
        <polygon id="path-1" points="0 0 70.4035222 0 70.4035222 24 0 24"></polygon>
        <polygon id="path-3" points="0.00284908964 0.0132165258 38.2414909 0.0132165258 38.2414909 10.2080707 0.00284908964 10.2080707"></polygon>
    </defs>
    <g id="counterstrike-" stroke="none" stroke-width="1" fill="none" fill-rule="evenodd">
        <g id="Group-7-Copy-2">
            <g id="Group-3">
                <mask id="mask-2" fill="white">
                    <use xlink:href="#path-1"></use>
                </mask>
                <g id="Clip-2"></g>
                <path d="M44.6600138,12.8083832 C45.9064004,12.8091018 47.1520656,12.8091018 48.3984522,12.8091018 C48.9091244,12.811976 49.4320586,12.7817964 49.9283051,12.9262275 C50.2471146,13.017485 50.5536623,13.2079042 50.7065754,13.5104192 C50.9748947,14.0184431 50.9352239,14.6112575 50.9200768,15.165988 C50.8919466,15.5267066 50.8731931,15.9334132 50.6041525,16.2086228 C50.3690124,16.485988 50.0408261,16.6613174 49.6982141,16.7712575 C50.3019326,17.5171257 50.9568625,18.2213174 51.5714004,18.9585629 C51.040532,18.9628743 50.5103849,18.9607186 49.9802379,18.9614371 C49.7710642,18.9657485 49.5416945,18.931976 49.3967155,18.765988 C49.1096426,18.451976 48.8593555,18.1063473 48.5859872,17.7801198 C48.0176118,17.0543713 47.4023527,16.3631138 46.8621076,15.6158084 C47.5437253,15.5978443 48.2253429,15.6273054 48.9069606,15.6043114 C49.1009872,15.588503 49.3721917,15.5475449 49.4140264,15.3154491 C49.4731721,15.0057485 49.4803849,14.6773653 49.4082561,14.3698204 C49.3390124,14.1283832 49.0389564,14.1219162 48.8333891,14.1053892 C47.9368275,14.0967665 47.0409872,14.1075449 46.1451468,14.0996407 C46.1083611,15.6517365 46.1321637,17.2052695 46.1336062,18.7573653 C45.64313,18.805509 45.1490474,18.7796407 44.6571286,18.7724551 C44.6585712,16.7841916 44.6528009,14.7966467 44.6600138,12.8083832 M37.9520306,12.8083832 C39.8937393,12.8134132 41.835448,12.8019162 43.7771567,12.8141317 C43.7468625,13.1245509 43.6516525,13.4356886 43.4453639,13.6764072 C43.2116665,13.9530539 42.8445306,14.0989222 42.4853289,14.1017964 C41.4610992,14.1075449 40.4375908,14.0960479 39.4133611,14.1061078 C39.4176889,14.4488623 39.4169676,14.7916168 39.4148037,15.1343713 C40.6409942,15.1408383 41.8671847,15.1243114 43.0933751,15.1422754 C43.0962603,15.7882635 42.5812603,16.4184431 41.9147897,16.4493413 C41.0860292,16.4658683 40.2565474,16.4479042 39.4277869,16.4558084 C39.4133611,16.7978443 39.4133611,17.1405988 39.4292295,17.4826347 C40.8811833,17.4941317 42.333137,17.4862275 43.7850908,17.485509 C43.7915824,17.9058683 43.5766384,18.320479 43.2361903,18.5662275 C42.977969,18.7516168 42.6490614,18.7904192 42.3389074,18.7832335 C40.8761342,18.7724551 39.4126398,18.7947305 37.9498667,18.7724551 C37.950588,16.7841916 37.945539,14.7966467 37.9520306,12.8083832 M31.3702729,12.9269461 C31.6616735,12.7789222 31.9977939,12.8098204 32.3144396,12.8076647 C34.0238933,12.8112575 35.7333471,12.8069461 37.4420796,12.8098204 C37.4391945,13.1647904 37.2963793,13.5147305 37.0453709,13.7669461 C36.8059032,13.9983234 36.4661763,14.1039521 36.1372687,14.102515 C35.6778079,14.1068263 35.2190684,14.0989222 34.7596076,14.1017964 C34.7314774,15.6567665 34.7538373,17.2117365 34.7487883,18.7667066 C34.2583121,18.7875449 33.7642295,18.7990419 33.2744746,18.7609581 C33.273032,17.2074251 33.2946707,15.6538922 33.2643765,14.1010778 C32.3894536,14.097485 31.5145306,14.114012 30.6396076,14.0938922 C30.6648527,13.6167665 30.9259592,13.1353293 31.3702729,12.9269461 M23.0127029,12.7997605 C23.8414634,12.7566467 24.7185502,12.9837126 25.3244326,13.5729341 C26.3472197,14.542994 27.3837113,15.4979641 28.4086623,16.4665868 C28.5060362,16.5592814 28.6120656,16.6419162 28.7202589,16.7223952 C28.7577659,15.8457485 28.7152099,14.9662275 28.740455,14.0888623 C28.7988793,13.3645509 29.4703989,12.7904192 30.19313,12.7990419 C30.1996216,14.7865868 30.1888023,16.7741317 30.1989004,18.7609581 C29.7740614,18.7983234 29.3470586,18.7810778 28.9222197,18.7796407 C28.7743555,18.7997605 28.6798667,18.6761677 28.5803289,18.5913772 C27.425546,17.4905389 26.2642715,16.3968862 25.1058821,15.2996407 C24.8959872,15.0991617 24.6896987,14.8950898 24.4639354,14.7132934 C24.4451819,16.0670659 24.4668205,17.4208383 24.453116,18.7746108 C23.9712953,18.7861078 23.4894746,18.7861078 23.0076539,18.7746108 C23.0040474,16.7834731 22.9946707,14.7908982 23.0127029,12.7997605 M15.0987253,12.7968862 C15.5502519,12.8292216 16.0111553,13.0146108 16.2787533,13.3925749 C16.4547477,13.6332934 16.5564494,13.9279042 16.5607771,14.2261078 C16.5708751,15.3111377 16.5514004,16.3961677 16.5694326,17.4811976 C17.8201468,17.4869461 19.073025,17.5027545 20.3237393,17.4732934 C20.328067,15.9183234 20.3064284,14.3626347 20.3338373,12.8083832 C20.8149368,12.8083832 21.2967575,12.8091018 21.7785782,12.8076647 C21.8023807,14.1908982 21.7800208,15.5748503 21.7893975,16.9580838 C21.787955,17.28 21.8117575,17.6184431 21.6725488,17.919521 C21.4525558,18.4376048 20.9050978,18.788982 20.3403289,18.7796407 C19.1624648,18.7853892 17.9846006,18.777485 16.8067365,18.7832335 C16.5939564,18.7817964 16.3775698,18.7846707 16.1698387,18.7336527 C15.6865754,18.6129341 15.2819326,18.2213174 15.1499368,17.7420359 C15.0814144,17.5113772 15.092955,17.2677844 15.0922337,17.0299401 C15.0994466,15.6186826 15.0857421,14.2081437 15.0987253,12.7968862 M8.75210763,14.1053892 C8.75499279,15.2263473 8.75787794,16.3465868 8.75066506,17.4675449 C9.10265385,17.5056287 9.45608522,17.4840719 9.8095166,17.4876647 C10.715455,17.4747305 11.6228359,17.5149701 12.5273317,17.4675449 C12.5201188,16.3465868 12.523004,15.2263473 12.5258891,14.1053892 C11.267962,14.1003593 10.0100348,14.1003593 8.75210763,14.1053892 M8.46719867,12.8320958 C8.59991576,12.8098204 8.73479671,12.8083832 8.86895637,12.8069461 C10.098032,12.811976 11.3263863,12.8069461 12.5547407,12.8091018 C13.1440334,12.7997605 13.7066384,13.1978443 13.9006651,13.748982 C13.9944326,13.9932934 13.9864984,14.2584431 13.9857771,14.5149701 C13.9800068,15.4749701 13.9872197,16.4349701 13.9828919,17.3942515 C13.9872197,18.1444311 13.2991104,18.7976048 12.550413,18.7796407 C11.2758961,18.782515 10.0013793,18.782515 8.72758382,18.7796407 C7.97888634,18.7990419 7.28933452,18.1444311 7.29510483,17.3942515 C7.29294097,16.3372455 7.29510483,15.2802395 7.29438354,14.222515 C7.28140035,13.5571257 7.81010483,12.9377246 8.46719867,12.8320958 M0.583515196,13.0835928 C0.866981583,12.8658683 1.23195357,12.7961677 1.58249979,12.8062275 C2.7625278,12.8148503 3.94183452,12.8026347 5.12114125,12.811976 C5.84459363,12.811976 6.46995077,13.4292216 6.51899839,14.1413174 C4.87806702,14.1592814 3.23569307,14.131976 1.59476169,14.1535329 C1.58971268,15.2385629 1.59043396,16.3228743 1.59476169,17.4071856 C3.23208662,17.4287425 4.87013284,17.4086228 6.50817906,17.4165269 C6.50385133,18.1458683 5.85036394,18.7753293 5.12258382,18.7767665 C3.9685222,18.7904192 2.81373929,18.7746108 1.65895637,18.7839521 C1.31057402,18.7904192 0.941995588,18.7516168 0.647709874,18.5475449 C0.318081022,18.3441916 0.123333123,17.9942515 -7.21288515e-06,17.6385629 L-7.21288515e-06,13.9149701 C0.130546008,13.6016766 0.296442367,13.2833533 0.583515196,13.0835928 M62.5443625,5.0205988 C62.525609,5.04502994 62.4873807,5.09245509 62.4686272,5.11688623 C62.5032491,5.35041916 62.6785222,5.54155689 62.7953709,5.74419162 C62.965595,5.50562874 63.137983,5.26706587 63.3002729,5.02275449 C63.0485432,5.01125749 62.7953709,4.99473054 62.5443625,5.0205988 M63.0016595,4.53341317 C62.9800208,4.70586826 62.9266454,4.87688623 62.7593065,4.95952096 C62.9800208,4.9451497 63.2036202,4.94586826 63.4214494,4.89844311 C63.4164004,4.77197605 63.4120726,4.64622754 63.4070236,4.51976048 C63.2707001,4.52263473 63.1358191,4.52694611 63.0016595,4.53341317 M59.0410642,0 L59.6858961,0 C60.1345376,0.175329341 60.5659403,0.418203593 60.9568065,0.693413174 C61.0823107,1.22011976 61.3015824,1.7805988 61.1118835,2.31952096 C60.9503149,2.46826347 60.7311153,2.52934132 60.5362953,2.6205988 C60.5593765,2.82826347 60.5932771,3.03449102 60.6257351,3.24071856 C60.9935922,3.20982036 61.35063,3.11353293 61.7119956,3.04383234 C61.7617645,2.8297006 61.7740985,2.59688623 61.9103499,2.41508982 C61.9399228,2.56023952 61.9637253,2.70682635 61.9824788,2.85413174 C62.1757841,2.96622754 62.3633191,3.12502994 62.6035803,3.09988024 C64.1182862,3.10131737 65.6336412,3.09556886 67.147698,3.1005988 C67.3142435,3.08766467 67.3935852,3.26371257 67.5083422,3.3542515 C67.5118765,3.03377246 67.510434,2.71329341 67.5248597,2.39281437 C67.5695796,2.3942515 67.6590194,2.39568862 67.7037393,2.39640719 C67.713116,2.67808383 67.6828219,2.96694611 67.7614424,3.24143713 C67.8458331,3.26083832 67.9323877,3.26658683 68.0196637,3.27736527 C68.0239914,3.38730539 68.0275978,3.49724551 68.0341616,3.60790419 C68.4993205,3.62155689 68.9696006,3.65245509 69.4312253,3.57341317 C69.7413793,3.52670659 70.0558611,3.55832335 70.3689004,3.55904192 C70.3739494,3.66898204 70.3840474,3.77820359 70.4035222,3.88742515 C70.0169116,3.9154491 69.6259732,3.94131737 69.2415264,3.87736527 C68.625546,3.80263473 68.0102869,3.93269461 67.3950278,3.89820359 C67.3741104,3.98155689 67.3546356,4.06491018 67.3351609,4.14826347 C66.7437043,4.15473054 66.1522477,4.14467066 65.5615124,4.14754491 C65.365394,4.14251497 65.1496567,4.18491018 65.025595,4.34946108 C64.8517645,4.5657485 64.6411482,4.75041916 64.4738093,4.97173653 C64.4197127,5.37772455 64.5791174,5.77149701 64.6707211,6.16095808 C64.5315124,6.21125749 64.3915824,6.25868263 64.2545376,6.31041916 C64.1138863,6.74946108 64.1694256,7.31137725 63.7662253,7.61892216 C63.5433471,7.78562874 63.3464354,7.99329341 63.0918205,8.11185629 C62.9064494,8.19520958 62.7073737,8.10826347 62.5212813,8.08095808 C61.8266805,7.9760479 61.2510922,7.55065868 60.6307841,7.25748503 C60.5903919,7.42491018 60.5449508,7.59017964 60.4995096,7.75616766 C60.6877659,7.87760479 60.9308401,7.98107784 60.9928709,8.21964072 C61.088081,8.56886228 61.0087393,8.93532934 60.9950348,9.29101796 C60.9655341,9.61724551 60.9560852,9.94562874 60.9250698,10.2718563 C60.8947757,10.5887425 60.7108471,10.8610778 60.5218695,11.1075449 C60.3451539,11.0644311 60.1721167,11.0134132 59.9974928,10.9674251 C59.8092365,11.3698204 59.9657561,11.8699401 60.2759102,12.1695808 C61.0823107,13.0433533 61.5194116,14.1679042 61.9291034,15.2637126 C61.9990684,15.4950898 62.2378149,15.6323353 62.2782071,15.8759281 C62.3460082,16.1346108 62.4419396,16.394012 62.4195796,16.6656287 C62.3885642,17.1420359 62.3540145,17.6184431 62.305616,18.0934132 C62.2724368,18.4419162 62.1426048,18.7897006 62.2190614,19.1417964 C62.2760432,19.428503 62.3113863,19.7317365 62.2060782,20.0126946 C62.0639844,20.365509 62.065427,20.7513772 62.0632631,21.1257485 C62.0697547,21.3722156 62.0835313,21.6431138 62.2551258,21.8385629 C62.4585292,22.0879042 62.6568835,22.3465868 62.8999578,22.5592814 C63.2007351,22.7554491 63.6147547,22.7568862 63.8621567,23.0407186 C63.9400558,23.1959281 63.8845166,23.377006 63.8823527,23.542994 C63.1011973,23.6608383 62.2839774,23.6694611 61.5251819,23.4265868 C61.0967365,23.2879042 60.6242925,23.5257485 60.2146006,23.291497 C60.2369606,22.8035928 60.3552519,22.3271856 60.5283611,21.8716168 C60.5997687,21.5317365 60.5218695,21.1796407 60.5147288,20.8354491 C60.5096076,20.5379641 60.3559732,20.2749701 60.2968275,19.988982 C60.1273247,19.3753293 60.0789984,18.7365269 60.0501468,18.1027545 C60.0126398,17.7916168 60.2774249,17.5566467 60.2881721,17.2526946 C60.3437113,16.9832335 60.3025978,16.7065868 60.1352589,16.4838323 C59.8445796,16.4752096 59.45292,16.5513772 59.2899088,16.2402395 C58.9494606,15.7386826 58.6184613,15.2299401 58.2787344,14.7283832 C58.1603709,14.5120958 57.8761833,14.5631138 57.6814354,14.4682635 C57.5076048,14.3087425 57.4210502,14.0831138 57.3128569,13.8797605 C57.2493835,14.1125749 57.1628289,14.3461078 56.9897197,14.5221557 C56.7170726,14.7952096 56.6189774,15.1746108 56.4776048,15.5209581 C56.378067,15.7709461 56.2886272,16.0275449 56.2525628,16.2948503 C56.2143345,16.4967665 56.2056791,16.7331737 56.0239144,16.8653892 C55.7570376,17.0665868 55.6618275,17.4057485 55.418032,17.6270659 C55.2362673,17.799521 55.1251889,18.034491 55.0653219,18.2737725 C55.0458471,18.4900599 55.1085992,18.7092216 55.0537813,18.9226347 C54.9549648,19.3135329 54.7385782,19.6584431 54.5798947,20.0256287 C54.4673737,20.2835928 54.4089494,20.5616766 54.285609,20.8153293 C54.2034543,20.9928144 53.9927659,21.0502994 53.8773597,21.1990419 C53.5426819,21.7724551 53.4359312,22.4637126 53.5556651,23.114012 C53.6515964,23.371976 53.7215614,23.6421557 53.6624879,23.919521 C53.4568485,23.9475449 53.2527239,23.9813174 53.0465075,24 L52.4088163,24 C52.24292,23.965509 52.0719746,23.9396407 51.920504,23.8620359 C51.8072617,23.5092216 51.8260152,23.1226347 51.9277169,22.7691018 C52.0770236,22.2373653 52.2126258,21.7020359 52.3475068,21.1674251 C52.4383891,20.9051497 52.2227239,20.6701796 52.2421987,20.4079042 C52.22056,20.0213174 52.4607491,19.7022036 52.6345796,19.3796407 C52.7975908,19.0929341 52.7398877,18.7473054 52.85313,18.4447186 C53.1091875,17.788024 53.5931721,17.2534132 53.8816875,16.6123832 C53.970406,16.3516168 53.8744746,16.0742515 53.8917855,15.805509 C53.9134242,15.2960479 54.0144046,14.7930539 54.1024018,14.291497 C54.1319746,14.0982036 54.1947267,13.8941317 54.1197127,13.7037126 C54.0396496,13.4766467 53.9833891,13.2352096 54.0151258,12.9930539 C54.0483051,12.7702994 53.9148667,12.548982 53.9985362,12.3312575 C54.0425348,12.1465868 54.2127589,12.0423952 54.3490824,11.9274251 C54.3736062,11.1686228 54.0966314,10.4227545 54.2127589,9.66610778 C54.345476,9.50227545 54.5589774,9.44335329 54.7443485,9.36071856 C54.4724228,9.30467066 54.200497,9.24790419 53.9300138,9.18826347 C53.9191945,8.88215569 53.9610292,8.57892216 54.0252239,8.28 C54.1247617,7.81365269 54.0699438,7.33149701 54.1442365,6.86227545 C54.1557771,6.74299401 54.2863303,6.70275449 54.3894746,6.69844311 C54.6362274,6.68047904 54.8849998,6.66898204 55.1273527,6.61077844 C55.0552239,6.01796407 54.9953569,5.41293413 55.1295166,4.82299401 C55.2593485,4.12670659 55.5723877,3.42107784 56.1587953,2.98994012 C56.562789,2.71832335 57.1462393,2.55808383 57.5681931,2.88215569 C57.6028149,2.85844311 57.6720586,2.81173653 57.7066805,2.78874251 C57.4614424,2.12982036 57.515539,1.36814371 57.9050348,0.774610778 C58.1567645,0.37005988 58.5981931,0.14011976 59.0410642,0" id="Fill-1" fill="#231F20" mask="url(#mask-2)"></path>
            </g>
            <g id="Group-6" transform="translate(64.699580, 12.790419)">
                <mask id="mask-4" fill="white">
                    <use xlink:href="#path-3"></use>
                </mask>
                <g id="Clip-5"></g>
                <path d="M36.6458204,8.06517126 C37.1240347,8.06660838 37.6022489,8.06588982 38.0804632,8.06517126 C38.0826271,8.17870419 38.0854401,8.29295569 38.0912104,8.40720719 C37.7442707,8.41511138 37.3987735,8.41144671 37.0526271,8.41295569 C37.0482272,8.58756647 37.0468568,8.76217725 37.0503911,8.93750659 C37.3728071,8.94749461 37.6966656,8.94828503 38.0205963,8.93894371 C38.0234814,9.04306347 38.0270158,9.14797365 38.0335074,9.25223713 C37.7060424,9.24929102 37.3785774,9.24864431 37.0526271,9.25575808 C37.0453421,9.44984192 37.0461355,9.6445006 37.0539975,9.83858443 C37.4031733,9.83923114 37.752277,9.83571018 38.1027511,9.84433293 C38.0977742,9.95786587 38.0941677,10.0713988 38.0920039,10.1856503 C37.610111,10.1856503 37.1276411,10.1841413 36.6458204,10.1863689 C36.6292307,9.47930299 36.6292307,8.77151856 36.6458204,8.06517126 Z M33.9012454,8.06660838 C34.0390116,8.06588982 34.1782202,8.06517126 34.3181502,8.06588982 C34.5180193,8.63276407 34.7069247,9.20474012 34.8742637,9.78325509 C35.0863225,9.22062036 35.2442847,8.63851257 35.442639,8.07012934 C35.5804051,8.06725509 35.7188925,8.06588982 35.8588946,8.06445269 C35.6735235,8.78222515 35.4239576,9.48282395 35.1880242,10.1856503 C34.9818078,10.1863689 34.7769618,10.1863689 34.5728372,10.1820575 C34.3470018,9.47707545 34.1111404,8.77582994 33.9012454,8.06660838 Z M32.6880382,8.06366228 C32.820034,8.06445269 32.9528232,8.06517126 33.0869107,8.06660838 C33.0897959,8.77295569 33.0897959,9.47930299 33.0869107,10.1856503 C32.9528232,10.1856503 32.8193127,10.1863689 32.6880382,10.187806 C32.6808253,9.47930299 32.6801761,8.77151856 32.6880382,8.06366228 Z M30.1108743,8.35906347 C30.1635284,8.14996168 30.3922489,8.08097964 30.5833183,8.06445269 C30.8891446,8.03930299 31.212354,8.02198563 31.505125,8.13056048 C31.7230263,8.22246467 31.7128561,8.49415329 31.7417798,8.69103952 C31.6082693,8.69103952 31.4770669,8.69032096 31.3464415,8.68744671 C31.3017216,8.59547066 31.3003512,8.47187784 31.212354,8.40857246 C31.0118358,8.36265629 30.7997048,8.36553054 30.6013505,8.41295569 C30.4218218,8.50852455 30.5018127,8.73271617 30.5242447,8.88864431 C30.8610865,8.95324311 31.2159604,8.92018922 31.5447959,9.02797365 C31.7640676,9.09918323 31.774959,9.3650515 31.7756082,9.55690778 C31.7713526,9.7645006 31.7525991,10.0576743 31.51241,10.1281653 C31.1351761,10.2330754 30.7225991,10.2323569 30.3439226,10.1396623 C30.072646,10.0612671 30.0518008,9.73726707 30.0756033,9.50438084 C30.1858883,9.50725509 30.2992027,9.51012934 30.412445,9.51235689 C30.449952,9.61791377 30.4837805,9.72648862 30.5415557,9.8256503 C30.8018687,9.90325509 31.0825221,9.88097964 31.3436285,9.8119976 C31.3530053,9.6862491 31.382506,9.55906347 31.3608673,9.43403353 C31.3205473,9.28385389 31.1387104,9.31403353 31.0212125,9.29247665 C30.7377461,9.25439281 30.4001831,9.30318323 30.1707412,9.10270419 C30.0287195,8.88648862 30.0561285,8.59971018 30.1108743,8.35906347 Z M27.1969408,8.06445269 C27.4234254,8.06301557 27.6513526,8.06366228 27.8792076,8.07451257 C28.1685165,8.64433293 28.4519107,9.21630898 28.7484324,9.78246467 C28.7455473,9.21271617 28.7368918,8.64361437 28.7498029,8.07451257 C28.8797069,8.07300359 29.0116306,8.07379401 29.1436264,8.07587784 C29.142256,8.78014132 29.1558883,9.48361437 29.1357644,10.1870156 C28.9078372,10.187806 28.6805592,10.1870156 28.4541467,10.1770275 C28.1620249,9.60857246 27.8677391,9.0416982 27.584994,8.46900359 C27.577709,9.04241677 27.612403,9.6165485 27.5690536,10.1892431 C27.4443428,10.187806 27.3210025,10.187806 27.1983834,10.1885246 C27.1789086,9.48074012 27.1817216,8.77223713 27.1969408,8.06445269 Z M24.8058694,8.06588982 C25.2847328,8.06588982 25.7637405,8.06588982 26.2433253,8.06660838 C26.2433253,8.17870419 26.2455613,8.2908 26.2498169,8.40361437 C25.8978281,8.41719521 25.5465606,8.40857246 25.1960865,8.41870419 L25.2003421,8.95115928 C25.5300431,8.94469222 25.8603932,8.94253653 26.1907433,8.95611737 C26.1834583,9.05527904 26.1792027,9.15451257 26.1792027,9.25367425 C25.8510165,9.24929102 25.5227581,9.24066826 25.1968078,9.26804551 C25.1974569,9.45623713 25.1974569,9.64385389 25.1968078,9.83211737 C25.5494457,9.84361437 25.9035984,9.83499162 26.2577511,9.84433293 C26.2534954,9.95858443 26.2506103,10.0727641 26.2498169,10.1870874 C25.7679961,10.1842132 25.2869688,10.1856503 24.8058694,10.1856503 C24.784952,9.47930299 24.784952,8.77223713 24.8058694,8.06588982 Z M22.569875,8.06588982 L23.9547489,8.06588982 C23.9576341,8.17942275 23.9604471,8.29367425 23.9654961,8.40792575 C23.6301691,8.41432096 23.2946978,8.40936287 22.9608134,8.41870419 C22.9614625,8.60258443 22.9614625,8.78660838 22.9608134,8.97056048 C23.2802721,8.97774611 23.6012454,8.97120719 23.9215697,8.99355449 C23.9165207,9.09982994 23.915006,9.2062491 23.9165207,9.31331497 C23.5969898,9.31618922 23.2766656,9.30181796 22.9585774,9.33415329 C22.9679541,9.61870419 22.9694688,9.90397365 22.9478302,10.1885246 C22.8208113,10.1870874 22.6953792,10.1870874 22.5712454,10.1870874 C22.5474429,9.48074012 22.5496068,8.77223713 22.569875,8.06588982 Z M20.2804331,8.06588982 C20.7492707,8.06804551 21.2181082,8.06157844 21.6869457,8.07012934 C21.6862966,8.17942275 21.6869457,8.28857246 21.6905522,8.39786587 C21.3559464,8.41870419 21.0212686,8.41223713 20.6865186,8.41367425 C20.682263,8.6005006 20.6815417,8.78804551 20.6865186,8.97559042 C21.0024429,8.97630898 21.3184394,8.97343473 21.6343638,8.98629701 C21.6293148,9.09630898 21.6257083,9.20696766 21.6241936,9.31762635 C21.3118757,9.31187784 20.9995578,9.31187784 20.6880333,9.32193772 C20.6807482,9.60936287 20.6815417,9.89750659 20.6807482,10.1856503 C20.5466607,10.1856503 20.4139436,10.1863689 20.2811544,10.187806 C20.2740137,9.4799497 20.2753841,8.77295569 20.2804331,8.06588982 Z M18.0611005,8.4445006 C17.8959254,8.49343473 17.9341537,8.70174611 17.9088365,8.8347521 C17.9124429,9.14732695 17.8374289,9.50660838 18.0062826,9.7868479 C18.2824639,9.87091976 18.6229842,9.90181796 18.8840907,9.75738683 C18.9987756,9.49151856 18.9583113,9.18677605 18.9634324,8.90445269 C18.9417938,8.75714731 18.972737,8.56457246 18.8480263,8.45887186 C18.5970179,8.37487186 18.3142728,8.37774611 18.0611005,8.4445006 Z M18.0546089,8.07451257 C18.4238365,8.04217725 18.8465116,7.99403353 19.1746978,8.20241677 C19.4293848,8.49127904 19.3636754,8.91810539 19.3767307,9.27451257 C19.3565347,9.5719976 19.3781733,10.0045725 19.0319548,10.123782 C18.6431082,10.2330754 18.2132202,10.238824 17.8259604,10.123782 C17.5828862,10.051279 17.5208554,9.77606946 17.5021019,9.55690778 C17.4738995,9.16529102 17.4631523,8.76002156 17.574952,8.3799018 C17.632583,8.1708 17.8634674,8.1010994 18.0546089,8.07451257 Z M13.9338155,8.06366228 C14.0665326,8.06517126 14.1993218,8.06517126 14.3334093,8.06588982 C14.3478351,8.65072814 14.3111215,9.23714731 14.3529562,9.82126707 C14.6768148,9.81551856 15.0021159,9.81487186 15.3266957,9.82414132 C15.3209254,9.9456503 15.3158043,10.0670156 15.3121978,10.1892431 C14.8520879,10.1820575 14.392555,10.1863689 13.9330942,10.1856503 C13.9281173,9.47858443 13.9266747,8.77072814 13.9338155,8.06366228 Z M12.0960445,8.40857246 C11.9892216,8.76648862 11.8666026,9.11858443 11.757688,9.47571018 C11.9921068,9.48145868 12.2272468,9.48145868 12.462459,9.47786587 C12.344889,9.11930299 12.2359023,8.75851257 12.0960445,8.40857246 Z M11.790146,8.07235689 C11.9913855,8.06517126 12.1940676,8.06445269 12.3968218,8.06517126 C12.6506432,8.76785389 12.890111,9.47571018 13.1187595,10.1863689 C12.9825081,10.1856503 12.8469058,10.1856503 12.7120249,10.1856503 C12.6572069,10.0490515 12.5987104,9.91547066 12.5453351,9.77959042 C12.26259,9.78038084 11.9791957,9.76241677 11.6978211,9.78469222 C11.5961194,9.89312335 11.5723169,10.0498419 11.5167777,10.1834228 L11.1027581,10.187806 C11.3026271,9.47355449 11.5715956,8.78085988 11.790146,8.07235689 Z M9.03994503,9.26804551 C9.04059419,9.45623713 9.04059419,9.64385389 9.03994503,9.83211737 C9.30602836,9.83499162 9.57867542,9.86804551 9.84122444,9.80481198 C10.0128911,9.69702754 9.9256152,9.46708743 9.92273004,9.30318323 C9.63277206,9.23930299 9.33343732,9.23714731 9.03994503,9.26804551 Z M9.03915161,8.41942275 C9.04059419,8.59834491 9.04131548,8.77647665 9.04203676,8.95547066 C9.31901155,8.95899162 9.60031408,8.97271617 9.87151856,8.90157844 C9.87440371,8.75068024 9.95590931,8.51427305 9.7683743,8.44313533 C9.53107038,8.38062036 9.28078326,8.41870419 9.03915161,8.41942275 Z M8.64900665,8.06588982 C9.09332038,8.07954251 9.54261099,8.03283593 9.98403957,8.09606946 C10.4196978,8.18732695 10.4010165,8.82612934 10.1167567,9.07762635 C10.3821908,9.28881198 10.4370809,9.66756647 10.2934723,9.96497964 C10.2026621,10.1382251 9.98916071,10.1741533 9.81309419,10.1805485 C9.42504097,10.1942731 9.03626646,10.1820575 8.64900665,10.1856503 C8.62873845,9.47930299 8.62808929,8.77223713 8.64900665,8.06588982 Z M6.3516306,8.48265629 C6.21819223,8.7405485 6.270125,9.05894371 6.26002696,9.34270419 C6.28101646,9.50229701 6.24134559,9.76097964 6.44467682,9.81415329 C6.70866842,9.85791377 7.0238715,9.90325509 7.25901155,9.74517126 C7.36294923,9.33415329 7.32753396,8.90085988 7.27343732,8.48553054 C6.98355147,8.38126707 6.63293312,8.34612934 6.3516306,8.48265629 Z M6.37254797,8.08162635 C6.7598799,8.0399497 7.21219993,7.9868479 7.55120553,8.21671617 C7.7898799,8.53432096 7.7271278,8.96768623 7.7336194,9.34133892 C7.70909559,9.61439281 7.71847234,10.003782 7.40766912,10.118824 C7.02098634,10.2323569 6.59470483,10.2359497 6.20665161,10.1317581 C5.9246278,10.0606204 5.87341632,9.7365485 5.85401366,9.49295569 C5.83526015,9.11714731 5.82371954,8.72768623 5.94128957,8.36553054 C5.99755007,8.18014132 6.20016001,8.11259641 6.37254797,8.08162635 Z M3.70955077,8.06948263 C3.84515301,8.06660838 3.98003396,8.06517126 4.11715091,8.06301557 C4.14809419,8.64864431 4.11780007,9.23491976 4.13294713,9.82126707 C4.46041211,9.81551856 4.7878771,9.81264431 5.11534209,9.82773413 C5.11180777,9.94636886 5.11029307,10.0656503 5.10957178,10.1856503 C4.64297024,10.1842132 4.17550315,10.1892431 3.70882948,10.1813389 C3.71604237,9.47707545 3.71459979,8.77295569 3.70955077,8.06948263 Z M1.41159769,8.0896024 C1.77584839,8.02773413 2.16094433,8.02198563 2.52158859,8.11547066 C2.78053116,8.1765485 2.78565231,8.48042874 2.8158743,8.69175808 C2.68034419,8.69463234 2.54611239,8.69240479 2.41202486,8.69240479 C2.35792822,8.60193772 2.35064321,8.4416982 2.22232598,8.42445269 C1.99865441,8.38852455 1.76207178,8.37839281 1.54431478,8.44385389 C1.37978887,8.49415329 1.37841842,8.69175808 1.3711334,8.83187784 C1.3711334,9.10708743 1.34235399,9.39012934 1.40719783,9.6610994 C1.46280917,9.85791377 1.71086029,9.84210539 1.87466492,9.85144671 C2.03046324,9.84074012 2.23307318,9.87091976 2.34198775,9.73216527 C2.39182878,9.61582994 2.37805217,9.48577006 2.38959279,9.36354251 C2.21576225,9.36145868 2.04272514,9.35571018 1.87026506,9.35211737 C1.87177976,9.25367425 1.87242892,9.15451257 1.87098634,9.05606946 C2.18186169,9.05103952 2.49273704,9.05032096 2.80433368,9.05815329 C2.78341632,9.38588982 2.88006898,9.77175808 2.65942682,10.0498419 C2.41123144,10.2200695 2.08665161,10.1942731 1.79965091,10.2028958 C1.52765301,10.1906802 1.16123845,10.1776743 1.03869153,9.88529102 C0.902295868,9.50660838 0.960792367,9.09120719 0.970818277,8.69750659 C0.971539566,8.4302012 1.12380357,8.13415329 1.41159769,8.0896024 Z M32.4110634,0.0208598802 C34.3520508,0.0157580838 36.2930382,0.0187041916 38.2340977,0.0193508982 C38.2318617,0.657506587 37.7320809,1.26828503 37.0756362,1.30493174 C36.0154142,1.32361437 34.9543267,1.30629701 33.8947539,1.3113988 C33.8745578,1.65630898 33.8673449,2.00337485 33.9012454,2.34756647 C35.11741,2.34469222 36.3342237,2.33894371 37.5509653,2.34972216 C37.5711614,3.00936287 37.0259394,3.63954251 36.352256,3.65959042 C35.5306362,3.67547066 34.7090886,3.65606946 33.8876131,3.6668479 C33.8767216,4.00816527 33.8760725,4.34948263 33.8883344,4.69000958 C35.3380522,4.70517126 36.7885634,4.69798563 38.2390746,4.69288383 C38.2845158,5.36481198 37.6858463,6.00713533 37.0035074,5.98917126 C35.8487244,5.99355449 34.6939415,5.98917126 33.5398799,5.99068024 C33.162646,5.9856503 32.7846908,6.00936287 32.4088995,5.97056048 C32.4161124,3.98732695 32.4125781,2.00402156 32.4110634,0.0208598802 Z M25.022256,0.0179856287 C25.5033554,0.0179856287 25.985104,0.0187041916 26.4669968,0.0172670659 C26.4951271,0.782464671 26.4568267,1.54917126 26.4871208,2.31451257 C26.5924289,2.28720719 26.7063925,2.26485988 26.7944618,2.19235689 C27.7112195,1.48018922 28.6135515,0.74588982 29.5389646,0.0467281437 C30.2428701,-0.0208167665 30.9612735,0.0381053892 31.6717426,0.0179856287 C30.5862034,1.01175808 29.4415186,1.93942275 28.350209,2.92593772 C29.3882153,3.74445269 30.4361754,4.54996168 31.4777882,5.36481198 C31.727354,5.56378204 31.9978372,5.7399018 32.2163876,5.97559042 C31.6725361,6.00936287 31.1271698,5.98133892 30.582597,5.99204551 C30.26523,5.98636886 29.9074709,6.04097964 29.6435515,5.82397365 C28.6979422,5.11468024 27.7587525,4.39690778 26.8174709,3.68193772 C26.7237034,3.5999497 26.5974779,3.59060838 26.4821439,3.57415329 C26.4662034,4.37750659 26.4857504,5.18078802 26.472695,5.98421317 C25.9866187,5.99491976 25.5003981,5.99714731 25.0149709,5.98277605 C25.0106432,3.99451257 24.9977321,2.00553054 25.022256,0.0179856287 Z M21.9207153,0.0179856287 C22.4018148,0.0179856287 22.8835634,0.0187041916 23.3654562,0.0172670659 C23.3855802,2.00553054 23.3733183,3.99515928 23.3711544,5.98421317 C22.8850781,5.99491976 22.3988575,5.99714731 21.9135025,5.98277605 C21.9098239,3.99451257 21.8954702,2.00553054 21.9207153,0.0179856287 Z M14.0124359,0.0193508982 C15.2559373,0.0172670659 16.4994387,0.0193508982 17.7436614,0.0187041916 C18.2897489,0.0215784431 18.8537244,-0.012194012 19.3795438,0.168165269 C19.6955403,0.272356886 19.9703512,0.504380838 20.1016257,0.811997605 C20.3129632,1.27906347 20.2768988,1.80354251 20.2688925,2.30301557 C20.2515816,2.61056048 20.2343428,2.93175808 20.100111,3.21487186 C19.8708134,3.60074012 19.4668197,3.84857246 19.0455872,3.98229701 C19.6110774,4.66493174 20.2487686,5.2856982 20.8027181,5.97695569 C20.2884394,6.00361437 19.772646,5.98780599 19.2583673,5.99068024 C19.0204142,5.99714731 18.7650781,5.9439018 18.6114436,5.74924311 C18.1043057,5.1513988 17.6095018,4.54270419 17.1074849,3.94062036 C16.8103862,3.56689581 16.4792426,3.21982994 16.2087595,2.82612934 C16.8652041,2.81103952 17.5215046,2.82749461 18.1786705,2.82181796 C18.3972209,2.81606946 18.7095389,2.78373413 18.7570718,2.51858443 C18.814847,2.21103952 18.8284793,1.88402156 18.75498,1.57863234 C18.6835725,1.33798563 18.384959,1.3308 18.1786705,1.31499162 C17.2842006,1.30708743 16.389875,1.31563832 15.4954772,1.31068024 C15.4629471,2.86342275 15.4861005,4.41774611 15.4845858,5.97120719 C14.9941096,6.00713533 14.5007482,5.99779401 14.0103442,5.97630898 C14.0138785,3.99091976 14.0096229,2.00481198 14.0125081,0.0194227545 L14.0124359,0.0193508982 Z M6.99581338,1.2999018 C7.02322234,0.677554491 7.49847934,0.0546323353 8.1541306,0.0244526946 C9.91414671,0.00864431138 11.674812,0.0266083832 13.4346838,0.0157580838 C13.4707482,0.570560479 13.0747609,1.1353509 12.5252111,1.26397365 C12.0058834,1.36306347 11.4713365,1.29120719 10.9455172,1.30917126 C10.9094527,2.8605485 10.9326061,4.41487186 10.9346978,5.96696766 C10.4464576,6.01151856 9.95446674,5.99642874 9.46550525,5.97630898 C9.46110539,4.42133892 9.48274405,2.8656503 9.45533508,1.3113988 C8.63523004,1.30421317 7.815125,1.32792575 6.99581338,1.2999018 Z M0.0930101541,0.959231138 C0.288479342,0.409602395 0.849713936,0.0100095808 1.43749195,0.0193508982 C2.54474195,0.0157580838 3.65256898,0.0215784431 4.75981898,0.0172670659 C5.08079237,0.0172670659 5.41684069,-0.00428982036 5.717618,0.1308 C6.19511099,0.326249102 6.54060819,0.791159281 6.59044923,1.30277605 C4.89318522,1.32289581 3.19527206,1.30917126 1.49735889,1.30917126 C1.46569433,1.64761437 1.47644153,1.98756647 1.48798214,2.32672814 C2.76899055,2.3468479 4.05007108,2.32385389 5.33107948,2.33671617 C6.01406758,2.34821317 6.64166071,2.90948263 6.69864251,3.59283593 C6.71732388,3.95348263 6.71516001,4.31714731 6.69929167,4.67858443 C6.65969293,5.37264431 6.03649965,5.97120719 5.33822024,5.9856503 C4.11202976,6.00002156 2.88583929,5.98421317 1.65964881,5.99283593 C1.30989601,6.00289581 0.942038866,5.95762635 0.649123599,5.75068024 C0.284223739,5.51858443 0.0656733193,5.11403353 0.00284908964,4.69439281 C1.74908859,4.67068024 3.49604937,4.71738683 5.24156758,4.6713988 C5.23219083,4.34157844 5.25318032,4.01103952 5.23219083,3.68193772 L5.18682178,3.64097964 C3.91439671,3.62876407 2.64139461,3.64744671 1.36904167,3.63379401 C0.640468137,3.61726707 -0.0115766807,2.96409341 0.00869152661,2.23259641 C0.0238385854,1.80864431 -0.0469198179,1.36816527 0.0930101541,0.959231138 Z" id="Fill-4" fill="#231F20" mask="url(#mask-4)"></path>
            </g>
        </g>
    </g>
</svg>