<?xml version="1.0" encoding="UTF-8"?>
<svg width="18px" height="15px" viewBox="0 0 18 15" version="1.1" xmlns="http://www.w3.org/2000/svg" xmlns:xlink="http://www.w3.org/1999/xlink">
    <!-- Generator: Sketch 51.2 (57519) - http://www.bohemiancoding.com/sketch -->
    <title>Deposit (deactivated) </title>
    <desc>Created with Sketch.</desc>
    <defs>
        <polygon id="path-1" points="2.04545455e-05 1.97368421e-05 18 1.97368421e-05 18 15 2.04545455e-05 15"></polygon>
    </defs>
    <g id="Deposit-(deactivated)-" stroke="none" stroke-width="1" fill="none" fill-rule="evenodd">
        <g id="Group-3">
            <mask id="mask-2" fill="white">
                <use xlink:href="#path-1"></use>
            </mask>
            <g id="Clip-2"></g>
            <path d="M6.83470227,7.77909868 L6.25624773,7.22094079 L9.00002045,4.57344079 L11.7437932,7.22094079 L11.1653386,7.77909868 L9.40911136,6.08449342 L9.40911136,11.0526513 L8.59092955,11.0526513 L8.59092955,6.08449342 L6.83470227,7.77909868 Z M17.1818386,7.30265132 C17.1818386,7.84679605 16.7230432,8.28949342 16.1591114,8.28949342 L14.3182023,8.28949342 L14.3182023,5.92107237 L15.545475,5.92107237 L15.545475,3.15791447 L2.45456591,3.15791447 L2.45456591,5.92107237 L3.68183864,5.92107237 L3.68183864,8.28949342 L1.84092955,8.28949342 C1.27699773,8.28949342 0.818202273,7.84679605 0.818202273,7.30265132 L0.818202273,1.77633553 C0.818202273,1.23219079 1.27699773,0.789493421 1.84092955,0.789493421 L16.1591114,0.789493421 C16.7230432,0.789493421 17.1818386,1.23219079 17.1818386,1.77633553 L17.1818386,7.30265132 Z M13.295475,14.2105461 L4.70456591,14.2105461 C4.59370227,14.2105461 4.50002045,14.1201513 4.50002045,14.0131776 L4.50002045,13.795875 C4.56608864,13.8089013 4.63461136,13.8158092 4.70456591,13.8158092 L13.295475,13.8158092 C13.3654295,13.8158092 13.4339523,13.8089013 13.5000205,13.795875 L13.5000205,14.0131776 C13.5000205,14.1201513 13.4063386,14.2105461 13.295475,14.2105461 Z M3.27274773,5.13159868 L3.68183864,5.13159868 L3.68183864,3.94738816 L3.27274773,3.94738816 L3.27274773,5.13159868 Z M4.50002045,12.6116645 C4.56608864,12.6246908 4.63461136,12.6315987 4.70456591,12.6315987 L13.295475,12.6315987 C13.3654295,12.6315987 13.4339523,12.6246908 13.5000205,12.6116645 L13.5000205,12.8289671 C13.5000205,12.9359408 13.4063386,13.0263355 13.295475,13.0263355 L4.70456591,13.0263355 C4.59370227,13.0263355 4.50002045,12.9359408 4.50002045,12.8289671 L4.50002045,12.6116645 Z M13.5000205,11.6447566 C13.5000205,11.7517303 13.4063386,11.842125 13.295475,11.842125 L4.70456591,11.842125 C4.59370227,11.842125 4.50002045,11.7517303 4.50002045,11.6447566 L4.50002045,3.94738816 L13.5000205,3.94738816 L13.5000205,11.6447566 Z M14.3182023,5.13159868 L14.7272932,5.13159868 L14.7272932,3.94738816 L14.3182023,3.94738816 L14.3182023,5.13159868 Z M16.1591114,1.97368421e-05 L1.84092955,1.97368421e-05 C0.825975,1.97368421e-05 2.04545455e-05,0.796796053 2.04545455e-05,1.77633553 L2.04545455e-05,7.30265132 C2.04545455e-05,8.28219079 0.825975,9.07896711 1.84092955,9.07896711 L3.68183864,9.07896711 L3.68183864,11.6447566 L3.68183864,12.8289671 L3.68183864,14.0131776 C3.68183864,14.5573224 4.14063409,15.0000197 4.70456591,15.0000197 L13.295475,15.0000197 C13.8594068,15.0000197 14.3182023,14.5573224 14.3182023,14.0131776 L14.3182023,12.8289671 L14.3182023,11.6447566 L14.3182023,9.07896711 L16.1591114,9.07896711 C17.1740659,9.07896711 18.0000205,8.28219079 18.0000205,7.30265132 L18.0000205,1.77633553 C18.0000205,0.796796053 17.1740659,1.97368421e-05 16.1591114,1.97368421e-05 Z" id="Fill-1" fill="#9E9E9E" mask="url(#mask-2)"></path>
        </g>
    </g>
</svg>