<?xml version="1.0" encoding="UTF-8"?>
<svg width="48px" height="48px" viewBox="0 0 48 48" version="1.1" xmlns="http://www.w3.org/2000/svg" xmlns:xlink="http://www.w3.org/1999/xlink">
    <!-- Generator: Sketch 51.2 (57519) - http://www.bohemiancoding.com/sketch -->
    <title>filter icon</title>
    <desc>Created with Sketch.</desc>
    <defs>
        <path d="M6,34 L6,38 L18,38 L18,34 L6,34 Z M6,10 L6,14 L26,14 L26,10 L6,10 Z M26,42 L26,38 L42,38 L42,34 L26,34 L26,30 L22,30 L22,42 L26,42 Z M14,18 L14,22 L6,22 L6,26 L14,26 L14,30 L18,30 L18,18 L14,18 Z M42,26 L42,22 L22,22 L22,26 L42,26 Z M30,18 L34,18 L34,14 L42,14 L42,10 L34,10 L34,6 L30,6 L30,18 Z" id="path-1"></path>
    </defs>
    <g id="filter-icon" stroke="none" stroke-width="1" fill="none" fill-rule="evenodd">
        <g id="Icon-/-Tune-/-Rounded">
            <mask id="mask-2" fill="white">
                <use xlink:href="#path-1"></use>
            </mask>
            <g id="Shape" fill-rule="nonzero"></g>
            <g id="✱-/-Color-/-Icons-/-Selected-/-On-Primary-/-Active-" mask="url(#mask-2)" fill="#FFFFFF" fill-rule="evenodd">
                <rect id="Rectangle-3" x="0" y="0" width="48" height="48"></rect>
            </g>
        </g>
    </g>
</svg>