<?xml version="1.0" encoding="UTF-8"?>
<svg width="35px" height="28px" viewBox="0 0 35 28" version="1.1" xmlns="http://www.w3.org/2000/svg" xmlns:xlink="http://www.w3.org/1999/xlink">
    <!-- Generator: Sketch 51.2 (57519) - http://www.bohemiancoding.com/sketch -->
    <title>list view icon</title>
    <desc>Created with Sketch.</desc>
    <defs></defs>
    <g id="list-view-icon" stroke="none" stroke-width="1" fill="none" fill-rule="evenodd">
        <g id="Group-13" fill="#FFFFFF">
            <path d="M33.4782609,3 L13.1884058,3 C12.3478986,3 11.6666667,2.3285 11.6666667,1.5 C11.6666667,0.6715 12.3478986,0 13.1884058,0 L33.4782609,0 C34.3187681,0 35,0.6715 35,1.5 C35,2.3285 34.3187681,3 33.4782609,3" id="Fill-1"></path>
            <path d="M33.4782609,15.5 L13.1884058,15.5 C12.3478986,15.5 11.6666667,14.8285 11.6666667,14 C11.6666667,13.1715 12.3478986,12.5 13.1884058,12.5 L33.4782609,12.5 C34.3187681,12.5 35,13.1715 35,14 C35,14.8285 34.3187681,15.5 33.4782609,15.5" id="Fill-3"></path>
            <path d="M33.4782609,28 L13.1884058,28 C12.3478986,28 11.6666667,27.3285 11.6666667,26.5 C11.6666667,25.6715 12.3478986,25 13.1884058,25 L33.4782609,25 C34.3187681,25 35,25.6715 35,26.5 C35,27.3285 34.3187681,28 33.4782609,28" id="Fill-5"></path>
            <path d="M5.57971014,3 L1.52173913,3 C0.681231884,3 0,2.3285 0,1.5 C0,0.6715 0.681231884,0 1.52173913,0 L5.57971014,0 C6.42021739,0 7.10144928,0.6715 7.10144928,1.5 C7.10144928,2.3285 6.42021739,3 5.57971014,3" id="Fill-7"></path>
            <path d="M5.57971014,15.5 L1.52173913,15.5 C0.681231884,15.5 0,14.8285 0,14 C0,13.1715 0.681231884,12.5 1.52173913,12.5 L5.57971014,12.5 C6.42021739,12.5 7.10144928,13.1715 7.10144928,14 C7.10144928,14.8285 6.42021739,15.5 5.57971014,15.5" id="Fill-9"></path>
            <path d="M5.57971014,28 L1.52173913,28 C0.681231884,28 0,27.3285 0,26.5 C0,25.6715 0.681231884,25 1.52173913,25 L5.57971014,25 C6.42021739,25 7.10144928,25.6715 7.10144928,26.5 C7.10144928,27.3285 6.42021739,28 5.57971014,28" id="Fill-11"></path>
        </g>
    </g>
</svg>