<?xml version="1.0" encoding="UTF-8"?>
<svg width="15px" height="9px" viewBox="0 0 15 9" version="1.1" xmlns="http://www.w3.org/2000/svg" xmlns:xlink="http://www.w3.org/1999/xlink">
    <!-- Generator: Sketch 51.2 (57519) - http://www.bohemiancoding.com/sketch -->
    <title>live (active) Icon</title>
    <desc>Created with Sketch.</desc>
    <defs>
        <polygon id="path-1" points="2.92397661e-06 0.0116972112 14.9716374 0.0116972112 14.9716374 7.96812749 2.92397661e-06 7.96812749"></polygon>
    </defs>
    <g id="live-(active)-Icon" stroke="none" stroke-width="1" fill="none" fill-rule="evenodd">
        <g id="Group-6">
            <g id="Group-3" transform="translate(0.000000, 0.020175)">
                <mask id="mask-2" fill="white">
                    <use xlink:href="#path-1"></use>
                </mask>
                <g id="Clip-2"></g>
                <path d="M7.46010526,7.23852749 C5.81414035,7.23852749 4.47978363,5.78408924 4.47978363,3.98982629 C4.47978363,2.19578645 5.81414035,0.741284462 7.46010526,0.741284462 C9.10604094,0.741284462 10.4403684,2.19578645 10.4403684,3.98982629 C10.4403684,5.78408924 9.1060117,7.23852749 7.46010526,7.23852749 M14.7548421,3.3907506 C14.7548421,3.3907506 11.7906608,0.0116908367 7.4858655,0.0116908367 C3.18098246,0.0116908367 0.21680117,3.3907506 0.21680117,3.3907506 C-0.0722631579,3.72031235 -0.0722631579,4.25946773 0.21680117,4.58902948 C0.21680117,4.58902948 3.18098246,7.96815299 7.4858655,7.96815299 C11.7906608,7.96815299 14.7548421,4.58902948 14.7548421,4.58902948 C15.0439064,4.25946773 15.0439064,3.72031235 14.7548421,3.3907506" id="Fill-1" fill="#F48400" mask="url(#mask-2)"></path>
            </g>
            <path d="M8.90680702,2.92978805 C8.57367836,2.92978805 8.30359064,2.63541355 8.30359064,2.27225817 C8.30359064,2.04507092 8.40935088,1.84481594 8.57005263,1.72669641 C8.23625146,1.53141355 7.85473099,1.42040159 7.44938012,1.42040159 C6.1385614,1.42040159 5.07590058,2.57874422 5.07590058,4.00749323 C5.07590058,5.43643347 6.1385614,6.59471235 7.44938012,6.59471235 C8.76019883,6.59471235 9.82280117,5.43643347 9.82280117,4.00749323 C9.82288889,3.48414661 9.67987719,2.99742151 9.43473099,2.59028207 C9.33180702,2.79267251 9.13417544,2.92978805 8.90680702,2.92978805 Z" id="Fill-4" fill="#F48400"></path>
        </g>
    </g>
</svg>