<?xml version="1.0" encoding="UTF-8"?>
<svg width="22px" height="23px" viewBox="0 0 22 23" version="1.1" xmlns="http://www.w3.org/2000/svg" xmlns:xlink="http://www.w3.org/1999/xlink">
    <!-- Generator: Sketch 51.2 (57519) - http://www.bohemiancoding.com/sketch -->
    <title>Live Feed (deactivated) </title>
    <desc>Created with Sketch.</desc>
    <defs></defs>
    <g id="Live-Feed-(deactivated)-" stroke="none" stroke-width="1" fill="none" fill-rule="evenodd">
        <g id="Group-7" transform="translate(0.000000, 0.600000)" fill="#9E9E9E">
            <path d="M10.8,18 C6.8238,18 3.6,14.7762 3.6,10.8 C3.6,6.8238 6.8238,3.6 10.8,3.6 C14.7762,3.6 18,6.8238 18,10.8 C18,14.7762 14.7762,18 10.8,18 M10.8,17.1 C14.2794,17.1 17.1,14.2794 17.1,10.8 C17.1,7.3206 14.2794,4.5 10.8,4.5 C7.3206,4.5 4.5,7.3206 4.5,10.8 C4.5,14.2794 7.3206,17.1 10.8,17.1" id="Fill-1"></path>
            <path d="M10.8,14.4 C8.8119,14.4 7.2,12.7881 7.2,10.8 C7.2,8.8119 8.8119,7.2 10.8,7.2 C12.7881,7.2 14.4,8.8119 14.4,10.8 C14.4,12.7881 12.7881,14.4 10.8,14.4 M10.8,12.6 C11.7936,12.6 12.6,11.7936 12.6,10.8 C12.6,9.8064 11.7936,9 10.8,9 C9.8064,9 9,9.8064 9,10.8 C9,11.7936 9.8064,12.6 10.8,12.6" id="Fill-3"></path>
            <path d="M13.95,21.11481 C13.6998,21.15441 13.4649,20.98341 13.4253,20.73411 C13.3857,20.48481 13.5567,20.24901 13.8069,20.20941 C14.0562,20.16981 14.2911,20.34081 14.3307,20.59101 C14.3703,20.84031 14.1993,21.07521 13.95,21.11481 M15.4926,20.51271 C15.2514,20.59101 14.9931,20.45871 14.9148,20.21841 C14.8365,19.97811 14.9679,19.71891 15.2082,19.64061 C15.4494,19.56231 15.7077,19.69461 15.786,19.93491 C15.8643,20.17611 15.732,20.43441 15.4926,20.51271 M16.9173,19.68561 C16.6896,19.79631 16.4151,19.70271 16.3044,19.47501 C16.1928,19.24731 16.2882,18.97281 16.5159,18.86211 C16.7436,18.75051 17.0172,18.84591 17.1279,19.07271 C17.2386,19.30041 17.145,19.57491 16.9173,19.68561 M18.2061,18.64701 C17.9991,18.79191 17.7138,18.74151 17.568,18.53451 C17.4222,18.32661 17.4735,18.04131 17.6805,17.89641 C17.8875,17.75151 18.1728,17.80101 18.3186,18.00891 C18.4644,18.21591 18.4131,18.50211 18.2061,18.64701 M19.3212,17.42301 C19.1394,17.59941 18.8487,17.59401 18.6732,17.41221 C18.4977,17.23041 18.5031,16.93971 18.6849,16.76421 C18.8667,16.58871 19.1565,16.59321 19.332,16.77501 C19.5084,16.95771 19.5039,17.24751 19.3212,17.42301 M20.2365,16.04331 C20.0835,16.24581 19.7964,16.28631 19.5948,16.13331 C19.3932,15.98121 19.3527,15.69411 19.5048,15.49161 C19.6569,15.28911 19.944,15.24861 20.1465,15.40161 C20.3481,15.55371 20.3886,15.84171 20.2365,16.04331 M20.9268,14.54661 C20.8035,14.76801 20.5254,14.84811 20.304,14.72571 C20.0817,14.60331 20.0025,14.32431 20.124,14.10291 C20.2473,13.88151 20.5263,13.80141 20.7477,13.92471 C20.9691,14.04621 21.0492,14.32521 20.9268,14.54661 M21.3831,12.95631 C21.2967,13.19301 21.0339,13.31631 20.7954,13.22901 C20.5578,13.14351 20.4354,12.88071 20.5218,12.64221 C20.6082,12.40461 20.871,12.28221 21.1095,12.36861 C21.3471,12.45501 21.4695,12.71781 21.3831,12.95631 M21.591,11.31291 C21.5433,11.56131 21.303,11.72331 21.0546,11.67561 C20.8053,11.62701 20.6433,11.38671 20.6919,11.13831 C20.7405,10.88991 20.9808,10.72791 21.2292,10.77561 C21.4776,10.82421 21.6396,11.06451 21.591,11.31291 M21.546,9.65871 C21.5379,9.91161 21.3255,10.10871 21.0726,10.10061 C20.8197,10.09161 20.6217,9.87921 20.6307,9.62631 C20.6397,9.37341 20.8512,9.17541 21.1041,9.18441 C21.357,9.19341 21.555,9.40491 21.546,9.65871 M21.249,8.02971 C21.2805,8.28081 21.1005,8.50941 20.8503,8.54001 C20.5992,8.57061 20.3706,8.39241 20.3391,8.14131 C20.3076,7.89021 20.4876,7.66161 20.7378,7.63101 C20.9889,7.59951 21.2175,7.77861 21.249,8.02971 M20.7081,6.47271 C20.7738,6.71751 20.6289,6.96861 20.3841,7.03431 C20.1393,7.10001 19.8891,6.95511 19.8225,6.71031 C19.7568,6.46551 19.9026,6.21441 20.1474,6.14961 C20.3913,6.08301 20.6433,6.22881 20.7081,6.47271 M19.9332,5.00931 C20.0367,5.24061 19.9323,5.51241 19.7019,5.61501 C19.4706,5.71761 19.1997,5.61321 19.0971,5.38281 C18.9936,5.15151 19.098,4.88061 19.3293,4.77801 C19.5597,4.67451 19.8306,4.77891 19.9332,5.00931 M18.945,3.68181 C19.0827,3.89421 19.0224,4.17771 18.81,4.31541 C18.5976,4.45401 18.3141,4.39281 18.1755,4.18131 C18.0387,3.96891 18.0981,3.68541 18.3114,3.54681 C18.5229,3.40911 18.8064,3.47031 18.945,3.68181 M17.7642,2.52081 C17.9343,2.70891 17.919,2.99871 17.7309,3.16791 C17.5428,3.33711 17.253,3.32181 17.0829,3.13371 C16.9137,2.94651 16.9299,2.65671 17.118,2.48661 C17.3061,2.31741 17.595,2.33271 17.7642,2.52081 M16.4268,1.55871 C16.6212,1.72161 16.6455,2.01051 16.4826,2.20401 C16.3206,2.39841 16.0317,2.42361 15.8382,2.26071 C15.6438,2.09871 15.6186,1.80891 15.7815,1.61541 C15.9444,1.42101 16.2333,1.39581 16.4268,1.55871 M14.9517,0.80721 C15.1686,0.93771 15.2388,1.21941 15.1083,1.43631 C14.9787,1.65321 14.6961,1.72341 14.4801,1.59291 C14.2632,1.46241 14.193,1.18071 14.3226,0.96381 C14.454,0.74691 14.7348,0.67671 14.9517,0.80721 M13.3785,0.28971 C13.6134,0.38511 13.7268,0.65241 13.6314,0.88641 C13.5378,1.12131 13.2705,1.23471 13.0356,1.14021 C12.8016,1.04481 12.6882,0.77751 12.7827,0.54351 C12.8772,0.30861 13.1436,0.19521 13.3785,0.28971 M11.7459,0.01971 C11.9916,0.07641 12.1455,0.32211 12.0897,0.56871 C12.0321,0.81531 11.7864,0.96921 11.5398,0.91251 C11.2932,0.85491 11.1393,0.60921 11.196,0.36261 C11.2527,0.11601 11.4993,-0.03789 11.7459,0.01971 M10.0899,0.00171 C10.3428,0.01881 10.5327,0.23751 10.5156,0.49041 C10.4976,0.74241 10.278,0.93321 10.026,0.91521 C9.7731,0.89811 9.5832,0.67851 9.6003,0.42651 C9.6192,0.17361 9.8379,-0.01629 10.0899,0.00171 M8.4591,0.23571 C8.712,0.21771 8.9307,0.40851 8.9478,0.66051 C8.9658,0.91341 8.775,1.13211 8.523,1.15011 C8.2701,1.16721 8.0514,0.97731 8.0343,0.72441 C8.0163,0.47241 8.2071,0.25281 8.4591,0.23571 M6.8751,0.71721 C7.1217,0.66051 7.3683,0.81351 7.425,1.06101 C7.4817,1.30761 7.3278,1.55331 7.0812,1.61001 C6.8346,1.66761 6.5889,1.51371 6.5313,1.26711 C6.4746,1.02051 6.6285,0.77391 6.8751,0.71721 M5.3829,1.43541 C5.6178,1.34001 5.8851,1.45341 5.9796,1.68831 C6.075,1.92321 5.9616,2.19051 5.7267,2.28501 C5.4918,2.37951 5.2245,2.26611 5.13,2.03121 C5.0355,1.79721 5.1489,1.52991 5.3829,1.43541 M4.0185,2.37231 C4.2354,2.24271 4.5171,2.31291 4.6476,2.52981 C4.7781,2.74671 4.7079,3.02841 4.491,3.15801 C4.2741,3.28851 3.9924,3.21831 3.8619,3.00141 C3.7314,2.78451 3.8016,2.50281 4.0185,2.37231 M2.8134,3.50811 C3.0069,3.34521 3.2967,3.37041 3.4587,3.56481 C3.6216,3.75831 3.5964,4.04721 3.402,4.21011 C3.2085,4.37211 2.9196,4.34781 2.7567,4.15341 C2.5938,3.95901 2.6199,3.67101 2.8134,3.50811 M1.8009,4.80771 C1.9701,4.61961 2.2599,4.60431 2.448,4.77441 C2.6361,4.94361 2.6514,5.23341 2.4822,5.42151 C2.313,5.60871 2.0232,5.62491 1.8351,5.45481 C1.647,5.28561 1.6317,4.99581 1.8009,4.80771 M0.9936,6.25311 C1.1313,6.04071 1.4157,5.98131 1.6281,6.11811 C1.8396,6.25671 1.8999,6.54021 1.7622,6.75261 C1.6245,6.96501 1.341,7.02531 1.1286,6.88671 C0.9162,6.74991 0.8559,6.46551 0.9936,6.25311 M0.4167,7.80471 C0.5202,7.57431 0.7902,7.46991 1.0215,7.57341 C1.2528,7.67601 1.3572,7.94691 1.2546,8.17821 C1.1511,8.40951 0.8802,8.51301 0.6489,8.41041 C0.4176,8.30781 0.3141,8.03601 0.4167,7.80471 M0.0837,9.42741 C0.1494,9.18261 0.4005,9.03771 0.6453,9.10341 C0.8892,9.16911 1.0341,9.41931 0.9693,9.66411 C0.9036,9.90891 0.6525,10.05381 0.4077,9.98811 C0.1638,9.92241 0.0189,9.67131 0.0837,9.42741 M0.0036,11.07261 C0.0342,10.82151 0.2628,10.64331 0.5139,10.67391 C0.7659,10.70451 0.9441,10.93311 0.9135,11.18421 C0.882,11.43621 0.6534,11.61441 0.4023,11.58381 C0.1512,11.55231 -0.027,11.32461 0.0036,11.07261 M0.1746,12.71961 C0.1656,12.46671 0.3636,12.25431 0.6165,12.24621 C0.8694,12.23721 1.0818,12.43431 1.0908,12.68811 C1.0998,12.94011 0.9018,13.15251 0.6489,13.16151 C0.3951,13.17051 0.1836,12.97251 0.1746,12.71961 M0.5958,14.32071 C0.5472,14.07231 0.7092,13.83201 0.9576,13.78341 C1.206,13.73571 1.4463,13.89681 1.4949,14.14611 C1.5435,14.39451 1.3815,14.63481 1.1331,14.68341 C0.8838,14.73111 0.6435,14.57001 0.5958,14.32071 M1.2564,15.83901 C1.1691,15.60141 1.2924,15.33771 1.53,15.25131 C1.7676,15.16491 2.0304,15.28731 2.1177,15.52581 C2.2041,15.76341 2.0808,16.02621 1.8432,16.11261 C1.6056,16.19901 1.3428,16.07661 1.2564,15.83901 M2.1411,17.23761 C2.0178,17.01711 2.0979,16.73811 2.3193,16.61571 C2.5407,16.49241 2.8197,16.57251 2.943,16.79391 C3.0654,17.01531 2.9853,17.29431 2.7639,17.41761 C2.5425,17.53911 2.2635,17.45901 2.1411,17.23761 M3.2247,18.47961 C3.0726,18.27801 3.1122,17.99001 3.3147,17.83791 C3.5163,17.68491 3.8043,17.72541 3.9564,17.92791 C4.1085,18.13041 4.068,18.41751 3.8655,18.57051 C3.6639,18.72261 3.3768,18.68211 3.2247,18.47961 M4.4892,19.54791 C4.3074,19.37151 4.3029,19.08171 4.4784,18.89991 C4.6539,18.71721 4.9446,18.71271 5.1264,18.88821 C5.3082,19.06461 5.3136,19.35441 5.1372,19.53621 C4.9617,19.71801 4.6719,19.72341 4.4892,19.54791 M5.9031,20.40921 C5.6961,20.26431 5.6457,19.97811 5.7906,19.77111 C5.9355,19.56321 6.2217,19.51371 6.4287,19.65861 C6.6366,19.80351 6.687,20.08881 6.5421,20.29671 C6.3963,20.50371 6.111,20.55411 5.9031,20.40921 M7.4322,21.04551 C7.2045,20.93391 7.11,20.65941 7.2207,20.43171 C7.3314,20.20491 7.6068,20.11041 7.8336,20.22111 C8.0613,20.33271 8.1558,20.60721 8.0442,20.83401 C7.9335,21.06081 7.6599,21.15621 7.4322,21.04551 M9.0324,21.43701 C8.7921,21.35871 8.6598,21.10041 8.7381,20.86011 C8.8164,20.61891 9.0747,20.48751 9.3159,20.56581 C9.5562,20.64411 9.6885,20.90241 9.6102,21.14271 C9.5319,21.38391 9.2727,21.51531 9.0324,21.43701 M10.6812,21.58281 C10.4319,21.54321 10.2609,21.30831 10.3005,21.05901 C10.3401,20.80791 10.575,20.63781 10.8252,20.67741 C11.0754,20.71791 11.2455,20.95191 11.2059,21.20211 C11.1663,21.45141 10.9314,21.62151 10.6812,21.58281 M12.3336,21.47391 C12.0807,21.47391 11.8755,21.26961 11.8755,21.01671 C11.8755,20.76291 12.0807,20.55771 12.3336,20.55771 C12.5865,20.55771 12.7917,20.76291 12.7917,21.01671 C12.7917,21.26961 12.5865,21.47391 12.3336,21.47391" id="Fill-5"></path>
        </g>
    </g>
</svg>