<?xml version="1.0" encoding="UTF-8"?>
<svg width="73px" height="47px" viewBox="0 0 73 47" version="1.1" xmlns="http://www.w3.org/2000/svg" xmlns:xlink="http://www.w3.org/1999/xlink">
    <!-- Generator: Sketch 51.2 (57519) - http://www.bohemiancoding.com/sketch -->
    <title>logo</title>
    <desc>Created with Sketch.</desc>
    <defs>
        <polygon id="path-1" points="45.8657596 0.521208955 22.9634135 46.2985075 0.0603653846 0.521208955 9.22116346 0.521208955 22.9634135 27.9874478 36.7042596 0.521208955"></polygon>
    </defs>
    <g id="logo" stroke="none" stroke-width="1" fill="none" fill-rule="evenodd">
        <g id="Group-18">
            <polygon id="Fill-1" fill="#F7981C" points="50.0406577 0.701422388 36.2998115 28.1676612 22.5575615 0.701422388 13.3967635 0.701422388 36.2998115 46.4787209 59.2021577 0.701422388"></polygon>
            <g id="Group-4" transform="translate(13.336538, 0.180354)">
                <mask id="mask-2" fill="white">
                    <use xlink:href="#path-1"></use>
                </mask>
                <g id="Clip-3"></g>
                <polygon id="Fill-2" mask="url(#mask-2)" points="0.0603653846 0.521208955 9.22116346 0.521208955 22.9634135 27.9874478 36.7042596 0.521208955 45.8657596 0.521208955 22.9634135 46.2985075"></polygon>
            </g>
            <polygon id="Fill-5" fill="#FEFEFE" points="0 23.6570642 64.8211923 23.8205119 72.5985 9.18176567 7.29017308 9.03234776"></polygon>
            <polygon id="Fill-6" fill="#231F20" points="4.68821442 20.8077418 9.10892596 11.9380701 10.8904067 11.9380701 7.34429135 19.0336672 14.4302048 19.0336672 13.533849 20.8077418"></polygon>
            <g id="Group-17" transform="translate(14.740385, 11.404234)" fill="#231F20">
                <path d="M6.77650577,7.62922239 C7.01586154,7.62922239 7.26644808,7.54644627 7.52686154,7.38019254 C7.79218846,7.2048194 7.98872692,6.99226716 8.11647692,6.74253582 L9.93375577,3.19508806 C10.0565923,2.95517761 10.0748423,2.74683433 9.98850577,2.57146119 C9.90287115,2.39608806 9.73862115,2.3077 9.49786154,2.3077 L5.93981346,2.3077 C5.68922692,2.3077 5.43091923,2.39608806 5.16629423,2.57146119 C4.91009231,2.74683433 4.721275,2.95517761 4.59914038,3.19508806 L2.79800577,6.74253582 C2.67095769,6.99226716 2.64639038,7.2048194 2.7229,7.38019254 C2.81415,7.54644627 2.98401538,7.62922239 3.23319808,7.62922239 L6.77650577,7.62922239 Z M1.44680385,9.40329701 C0.949140385,9.40329701 0.616428846,9.23213284 0.448669231,8.89050597 C0.285121154,8.5397597 0.327236538,8.11886418 0.575717308,7.62922239 L3.2704,2.3077 C3.51817885,1.8187597 3.90072692,1.40277463 4.41664038,1.06114776 C4.94729423,0.7097 5.45899615,0.534326866 5.95034231,0.534326866 L11.2961885,0.534326866 C11.7882365,0.534326866 12.1153327,0.7097 12.2788808,1.06114776 C12.4508519,1.41189403 12.41365,1.82717761 12.167275,2.3077 L9.43398654,7.62922239 C9.17778462,8.12798358 8.78611154,8.5488791 8.26037115,8.89050597 C7.73533269,9.23213284 7.23275577,9.40329701 6.75334231,9.40329701 L1.44680385,9.40329701 Z" id="Fill-7"></path>
                <path d="M11.1762298,9.40350746 C10.6792683,9.40350746 10.3472587,9.23234328 10.1823067,8.89071642 C10.0215663,8.53997015 10.0678933,8.11907463 10.3198837,7.62943284 L13.9691817,0.533835821 L15.7506625,0.533835821 L12.5484894,6.74274627 C12.4200375,6.99177612 12.3933644,7.20432836 12.4691721,7.37970149 C12.5583163,7.54665672 12.7274798,7.62943284 12.9766625,7.62943284 L16.5199702,7.62943284 C16.7600279,7.62943284 17.0113163,7.54665672 17.2731337,7.37970149 C17.5391625,7.20432836 17.7378067,6.99177612 17.8669606,6.74274627 L21.0965087,0.533835821 L22.8779894,0.533835821 L19.177451,7.62943284 C18.9170375,8.12819403 18.5225567,8.54838806 17.9940087,8.89071642 C17.4661625,9.23234328 16.9621817,9.40350746 16.4834702,9.40350746 L11.1762298,9.40350746 Z" id="Fill-9"></path>
                <polygon id="Fill-11" points="19.137301 9.40350746 23.7692913 0.533835821 25.551474 0.533835821 28.5051663 6.74274627 31.7873587 0.533835821 33.5695413 0.533835821 28.8666567 9.40350746 27.0978106 9.40350746 24.1574548 3.19459701 20.9061471 9.40350746"></polygon>
                <path d="M31.5203471,9.40350746 C31.0233856,9.40350746 30.6941837,9.23234328 30.5348471,8.89071642 C30.380424,8.53997015 30.4330683,8.11907463 30.6934817,7.62943284 L33.5187221,2.30791045 C33.7784337,1.81826866 34.1708087,1.40298507 34.6958471,1.06065672 C35.234924,0.709208955 35.7501356,0.533835821 36.2428856,0.533835821 L41.5880298,0.533835821 C42.079376,0.533835821 42.4029625,0.709208955 42.5580875,1.06065672 C42.7216356,1.41140299 42.6739048,1.82738806 42.4148952,2.30791045 L41.9375875,3.19459701 L40.1603183,3.19459701 C40.2887702,2.95538806 40.3126356,2.74704478 40.2305106,2.57167164 C40.1483856,2.39629851 39.9876452,2.30791045 39.7461837,2.30791045 L36.1874337,2.30791045 C35.937549,2.30791045 35.6771356,2.39629851 35.408299,2.57167164 C35.1478856,2.74704478 34.9534529,2.95538806 34.8257029,3.19459701 L32.9368279,6.74274627 C32.8041644,6.99177612 32.7739817,7.20432836 32.8469817,7.37970149 C32.9333183,7.54665672 33.1010779,7.62943284 33.3502606,7.62943284 L36.8935683,7.62943284 C37.133626,7.62943284 37.3856163,7.54665672 37.6502413,7.37970149 C37.9197798,7.20432836 38.1219337,6.99177612 38.256001,6.74274627 L38.7319048,5.85535821 L35.1836837,5.85535821 L36.1305779,4.08198507 L41.4609817,4.08198507 L39.551049,7.62943284 C39.2829144,8.12819403 38.8814144,8.54838806 38.347251,8.89071642 C37.8130875,9.23234328 37.306299,9.40350746 36.8275875,9.40350746 L31.5203471,9.40350746 Z" id="Fill-13"></path>
                <polygon id="Fill-15" points="39.4810673 9.40350746 44.2611635 0.533835821 53.1699712 0.533835821 52.2013173 2.30791045 45.0838173 2.30791045 44.1256923 4.08198507 49.4553942 4.08198507 48.4895481 5.85535821 43.1668654 5.85535821 42.2087404 7.62943284 49.2946538 7.62943284 48.326 9.40350746"></polygon>
            </g>
        </g>
    </g>
</svg>