<?xml version="1.0" encoding="UTF-8"?>
<svg width="26px" height="24px" viewBox="0 0 26 24" version="1.1" xmlns="http://www.w3.org/2000/svg" xmlns:xlink="http://www.w3.org/1999/xlink">
    <!-- Generator: Sketch 51.2 (57519) - http://www.bohemiancoding.com/sketch -->
    <title>maps icon (active) </title>
    <desc>Created with Sketch.</desc>
    <defs>
        <polygon id="path-1" points="0.2316375 0.0890790698 8.75773125 0.0890790698 8.75773125 12.4096521 0.2316375 12.4096521"></polygon>
        <polygon id="path-3" points="0 0.00858 7.969455 0.00858 7.969455 10.7999967 0 10.7999967"></polygon>
    </defs>
    <g id="maps-icon-(active)-" stroke="none" stroke-width="1" fill="none" fill-rule="evenodd">
        <g id="Group-13">
            <g id="Group-3" transform="translate(8.100000, 0.000000)">
                <mask id="mask-2" fill="white">
                    <use xlink:href="#path-1"></use>
                </mask>
                <g id="Clip-2"></g>
                <path d="M4.4942625,6.24971721 C3.583575,6.24971721 2.84416875,5.47965209 2.84416875,4.53054977 C2.84416875,3.5808614 3.583575,2.81138233 4.4942625,2.81138233 C5.40523125,2.81138233 6.1446375,3.5808614 6.1446375,4.53054977 C6.1446375,5.47965209 5.40579375,6.24971721 4.4942625,6.24971721 M8.75773125,4.53025674 C8.75773125,2.0814614 6.84523125,0.0889032558 4.4942625,0.0889032558 C2.14385625,0.0889032558 0.2316375,2.0814614 0.2316375,4.53025674 C0.2316375,5.97954977 0.955575,7.05465209 2.15623125,8.83594047 C2.77048125,9.74694977 3.5335125,10.8797777 4.37641875,12.3402056 C4.40173125,12.382987 4.44616875,12.4096521 4.49454375,12.4096521 C4.54291875,12.4096521 4.5876375,12.382694 4.61295,12.3402056 C5.45585625,10.8797777 6.21860625,9.74694977 6.8331375,8.83594047 C8.0335125,7.05465209 8.75773125,5.97954977 8.75773125,4.53025674" id="Fill-1" fill="#F48400" mask="url(#mask-2)"></path>
            </g>
            <polygon id="Fill-4" fill="#F48400" points="6.3 19.9702511 11.7 22.5 11.7 13.7597007 8.39569223 12.6"></polygon>
            <polygon id="Fill-6" fill="#F48400" points="12.6 13.759947 12.6 22.5 18 19.9703224 15.9042643 12.6"></polygon>
            <g id="Group-10" transform="translate(0.000000, 12.600000)">
                <mask id="mask-4" fill="white">
                    <use xlink:href="#path-3"></use>
                </mask>
                <g id="Clip-9"></g>
                <path d="M4.141665,1.42698 C4.075785,1.45098 4.020975,1.50498 3.989115,1.57338 L0.027675,10.37448 C-0.021735,10.48578 -0.004185,10.61868 0.073305,10.70928 C0.150525,10.79868 0.270135,10.82508 0.371385,10.77468 L5.786505,8.09988 L7.969455,0.00858 L4.141665,1.42698 Z" id="Fill-8" fill="#F48400" mask="url(#mask-4)"></path>
            </g>
            <path d="M25.131486,22.9100053 L21.1439708,14.1669623 C21.1121803,14.0982069 21.056821,14.0438631 20.9891291,14.0198438 L17.1,12.6 L19.3143727,20.6966223 L24.8127588,23.3747797 C24.847838,23.3918935 24.8853837,23.4 24.9215591,23.4 L24.9273143,23.4 C25.0755786,23.3963971 25.2,23.2702955 25.2,23.1060632 C25.2,23.0304023 25.1742387,22.9619471 25.131486,22.9100053" id="Fill-11" fill="#F48400"></path>
        </g>
    </g>
</svg>