<?xml version="1.0" encoding="UTF-8"?>
<svg width="19px" height="19px" viewBox="0 0 19 19" version="1.1" xmlns="http://www.w3.org/2000/svg" xmlns:xlink="http://www.w3.org/1999/xlink">
    <!-- Generator: Sketch 51.2 (57519) - http://www.bohemiancoding.com/sketch -->
    <title>my bets (active) </title>
    <desc>Created with Sketch.</desc>
    <defs>
        <polygon id="path-1" points="4.13043478e-05 0.0413043478 18.9586957 0.0413043478 18.9586957 19 4.13043478e-05 19"></polygon>
    </defs>
    <g id="my-bets-(active)-" stroke="none" stroke-width="1" fill="none" fill-rule="evenodd">
        <g id="Group-24">
            <g id="Group-3">
                <mask id="mask-2" fill="white">
                    <use xlink:href="#path-1"></use>
                </mask>
                <g id="Clip-2"></g>
                <path d="M16.7489543,14.2293065 C16.70765,14.291263 16.6663457,14.3119152 16.6043891,14.3119152 L16.583737,14.3119152 C16.5215739,14.3119152 16.4804761,14.291263 16.4391717,14.2501652 L15.5098239,13.3208174 C15.4478674,13.2586543 15.4272152,13.1553935 15.4685196,13.0727848 C15.8196065,12.4947304 16.0880848,11.8543065 16.2533022,11.193437 C16.2739543,11.1108283 16.356563,11.0282196 16.4598239,11.0282196 L17.7607043,11.0282196 C17.8228674,11.0282196 17.8848239,11.0488717 17.9261283,11.1108283 C17.9672261,11.1727848 17.9880848,11.2140891 17.9672261,11.2760457 C17.7402587,12.3499587 17.3272152,13.341263 16.7489543,14.2293065 Z M14.1880848,16.7901761 C13.3000413,17.368437 12.308737,17.7814804 11.2761283,17.9880022 L11.2348239,17.9880022 C11.1935196,17.9880022 11.1520087,17.9675565 11.1109109,17.9466978 C11.0696065,17.9053935 11.0283022,17.843437 11.0283022,17.7814804 L11.0283022,16.4803935 C11.0283022,16.3771326 11.0902587,16.2945239 11.1935196,16.2738717 C11.8543891,16.1088609 12.4739543,15.8401761 13.0728674,15.4892957 C13.1554761,15.4477848 13.258737,15.4477848 13.320487,15.5303935 L14.2498348,16.4597413 C14.2913457,16.5010457 14.3119978,16.5630022 14.3119978,16.6251652 C14.3119978,16.6869152 14.2498348,16.7488717 14.1880848,16.7901761 Z M3.3250413,9.52061087 C3.3250413,6.13365435 6.09243261,3.36626304 9.47938913,3.36626304 C12.8663457,3.36626304 15.633737,6.13365435 15.633737,9.52061087 C15.633737,12.9077739 12.8663457,15.6749587 9.47938913,15.6749587 C6.09243261,15.6749587 3.3250413,12.9077739 3.3250413,9.52061087 Z M7.93047609,17.8021326 C7.93047609,17.8642957 7.90982391,17.9260457 7.84786739,17.9675565 C7.80656304,17.9880022 7.7652587,18.0086543 7.72395435,18.0086543 L7.68265,18.0086543 C6.6500413,17.7814804 5.65873696,17.3890891 4.77069348,16.7901761 C4.70873696,16.7488717 4.68808478,16.7075674 4.68808478,16.6456109 C4.68808478,16.5836543 4.70873696,16.5219043 4.7500413,16.4803935 L5.67938913,15.5510457 C5.74134565,15.4892957 5.84460652,15.468437 5.92721522,15.5097413 C6.50547609,15.8608283 7.14569348,16.1293065 7.80656304,16.2945239 C7.88917174,16.3153826 7.97178043,16.3977848 7.97178043,16.5010457 L7.97178043,17.8021326 L7.93047609,17.8021326 Z M3.46960652,13.341263 L2.5402587,14.2706109 C2.49895435,14.3119152 2.45765,14.3325674 2.39569348,14.3325674 L2.3750413,14.3325674 C2.31308478,14.3325674 2.25112826,14.291263 2.23047609,14.2501652 C1.63156304,13.341263 1.21851957,12.3499587 1.01199783,11.31735 C0.991345652,11.2553935 1.01199783,11.193437 1.05330217,11.1521326 C1.09460652,11.1108283 1.15656304,11.0695239 1.21851957,11.0695239 L2.51960652,11.0695239 C2.62286739,11.0695239 2.70547609,11.1314804 2.72612826,11.2347413 C2.89134565,11.8956109 3.15982391,12.5151761 3.51091087,13.1142957 C3.53156304,13.1760457 3.53156304,13.2793065 3.46960652,13.341263 Z M2.20982391,4.81191522 C2.25112826,4.7499587 2.29243261,4.72930652 2.35438913,4.72930652 C2.41634565,4.72930652 2.47830217,4.7499587 2.51960652,4.79126304 L3.44895435,5.72061087 C3.51091087,5.78256739 3.53156304,5.88582826 3.4902587,5.96843696 C3.13917174,6.54669783 2.87069348,7.18691522 2.70547609,7.84778478 C2.68482391,7.93039348 2.60221522,8.01300217 2.49895435,8.01300217 L1.19786739,8.01300217 C1.13591087,8.01300217 1.07395435,7.99235 1.03265,7.93039348 C0.991345652,7.86843696 0.991345652,7.78582826 1.01199783,7.72387174 C1.21851957,6.69126304 1.63156304,5.6999587 2.20982391,4.81191522 Z M4.77069348,2.25104565 C5.65873696,1.67278478 6.6500413,1.2597413 7.68265,1.05321957 C7.74460652,1.03256739 7.80656304,1.05321957 7.84786739,1.09452391 C7.88917174,1.13582826 7.93047609,1.19778478 7.93047609,1.2597413 L7.93047609,2.56082826 C7.93047609,2.66408913 7.86851957,2.74669783 7.7652587,2.76735 C7.10438913,2.93256739 6.48482391,3.20104565 5.88591087,3.55213261 C5.84460652,3.57278478 5.82395435,3.57278478 5.78265,3.57278478 C5.72069348,3.57278478 5.67938913,3.55213261 5.63808478,3.51082826 L4.72938913,2.58148043 C4.68808478,2.54017609 4.66743261,2.47821957 4.66743261,2.41626304 C4.66743261,2.35430652 4.70873696,2.29235 4.77069348,2.25104565 Z M11.0283022,1.23908913 C11.0283022,1.17713261 11.0487478,1.11517609 11.1109109,1.07387174 C11.1520087,1.05321957 11.2141717,1.03256739 11.2761283,1.05321957 C12.308737,1.28039348 13.3000413,1.67278478 14.1880848,2.27169783 C14.2498348,2.31300217 14.2706935,2.35430652 14.2706935,2.41626304 C14.2706935,2.47821957 14.2498348,2.54017609 14.208737,2.58148043 L13.2793891,3.51082826 C13.2380848,3.55213261 13.1967804,3.57278478 13.1348239,3.57278478 C13.0935196,3.57278478 13.0522152,3.57278478 13.031563,3.55213261 C12.4533022,3.20104565 11.8130848,2.93256739 11.1520087,2.76735 C11.0696065,2.74669783 10.9869978,2.66408913 10.9869978,2.56082826 L10.9869978,1.23908913 L11.0283022,1.23908913 Z M15.4889652,5.6999587 L16.418313,4.77061087 C16.4598239,4.72930652 16.5215739,4.70865435 16.583737,4.70865435 C16.6456935,4.70865435 16.70765,4.7499587 16.7280957,4.79126304 C17.3272152,5.6999587 17.7402587,6.69126304 17.9467804,7.72387174 C17.9672261,7.78582826 17.9467804,7.84778478 17.9054761,7.88908913 C17.8639652,7.93039348 17.8022152,7.97169783 17.7402587,7.97169783 L16.4391717,7.97169783 C16.3359109,7.97169783 16.2533022,7.9097413 16.23265,7.80648043 C16.0674326,7.14561087 15.7987478,6.52604565 15.4478674,5.92713261 C15.4272152,5.86517609 15.4272152,5.76191522 15.4889652,5.6999587 Z M9.47938913,0.0412630435 C4.25438913,0.0412630435 4.13043478e-05,4.29561087 4.13043478e-05,9.52061087 C4.13043478e-05,14.7456109 4.25438913,19.0001652 9.47938913,19.0001652 C14.7043891,19.0001652 18.958737,14.7456109 18.958737,9.52061087 C18.958737,4.29561087 14.7043891,0.0412630435 9.47938913,0.0412630435 Z" id="Fill-1" fill="#F48400" mask="url(#mask-2)"></path>
            </g>
            <path d="M11.294784,9.48920863 C11.0873065,9.3381295 10.8588738,9.18705036 10.6101083,9.10071942 C10.3401801,8.99280576 10.0914146,8.90647482 9.86318934,8.82014388 C9.71774762,8.77697842 9.57272086,8.73381295 9.44823437,8.66906475 C9.30300012,8.62589928 9.17851363,8.56115108 9.07477489,8.49640288 C8.95028839,8.43165468 8.84654965,8.34532374 8.7843064,8.25899281 C8.70131541,8.15107914 8.63907216,8.02158273 8.63907216,7.8705036 C8.63907216,7.69784173 8.68056766,7.54676259 8.7843064,7.43884892 C8.8672974,7.35251799 8.95028839,7.26618705 9.07477489,7.22302158 C9.17851363,7.17985612 9.28225238,7.13669065 9.40673887,7.13669065 C9.51047761,7.11510791 9.61421636,7.11510791 9.69720735,7.11510791 C9.94618034,7.11510791 10.1951533,7.15827338 10.4648741,7.26618705 C10.6513963,7.33093525 10.8383335,7.43884892 11.0043155,7.54676259 L11.7304867,6.57553957 L11.7304867,6.55395683 C11.543757,6.4028777 11.3362795,6.27338129 11.128802,6.18705036 C10.9005768,6.07913669 10.6723515,6.01438849 10.4233786,5.97122302 C10.2159011,5.92805755 10.0706668,5.75539568 10.0706668,5.53956835 L10.0706668,5.02158273 C10.0706668,5.02158273 10.0706668,5 10.0499191,5 L9.22000913,5 C9.22000913,5 9.19926138,5 9.19926138,5.02158273 L9.19926138,5.56115108 C9.19926138,5.77697842 9.05402714,5.94964029 8.8672974,5.99280576 C8.68056766,6.03597122 8.49383792,6.10071942 8.32785593,6.18705036 C8.12037844,6.29496403 7.9336487,6.42446043 7.76766671,6.57553957 C7.60168472,6.72661871 7.47719822,6.92086331 7.39420723,7.15827338 C7.31121623,7.37410072 7.24897299,7.65467626 7.24897299,7.9352518 C7.24897299,8.25899281 7.31121623,8.53956835 7.43570273,8.75539568 C7.56018922,8.99280576 7.72617121,9.18705036 7.9336487,9.3381295 C8.14112619,9.51079137 8.36935143,9.64028777 8.61832441,9.74820144 C8.88804515,9.85611511 9.13701813,9.96402878 9.38599112,10.0503597 C9.6764596,10.1582734 9.94618034,10.2661871 10.1536578,10.3741007 C10.5063696,10.5467626 10.5893606,10.8057554 10.5893606,11 C10.5893606,11.1510791 10.5476576,11.2805755 10.4856218,11.3884892 C10.4233786,11.4748201 10.3401801,11.5611511 10.2573966,11.6043165 C10.1744056,11.647482 10.0706668,11.6906475 9.96692809,11.7122302 C9.88393709,11.7338129 9.78019835,11.7338129 9.69720735,11.7338129 C9.34449562,11.7338129 8.99178389,11.6690647 8.63907216,11.5395683 C8.34860368,11.4316547 8.07888294,11.2805755 7.82990995,11.0647482 L7,12.0791367 C7.24897299,12.3165468 7.51869372,12.4892086 7.82990995,12.618705 C8.14112619,12.7482014 8.47309017,12.8345324 8.7843064,12.8992806 C8.99178389,12.942446 9.15776588,13.1151079 9.15776588,13.352518 L9.15776588,13.9784173 C9.15776588,13.9784173 9.15776588,14 9.17851363,14 L10.0084236,14 C10.0084236,14 10.0289639,14 10.0289639,13.9784173 L10.0289639,13.2661871 C10.0289639,13.0503597 10.1744056,12.8776978 10.3611353,12.8345324 C10.5476576,12.7913669 10.713847,12.7266187 10.9005768,12.6402878 C11.1080543,12.5323741 11.3155318,12.4028777 11.460766,12.2302158 C11.626748,12.0791367 11.7512345,11.8848921 11.8549732,11.6690647 C11.958712,11.4532374 12,11.2158273 12,10.9568345 C12,10.6115108 11.9379642,10.3093525 11.8134777,10.0935252 C11.6682435,9.83453237 11.5022615,9.64028777 11.294784,9.48920863" id="Fill-12" fill="#F48400"></path>
            <path d="M12.0916743,11.6564748 C11.9729671,11.8938849 11.8344754,12.1115108 11.6366302,12.2895683 C11.4587672,12.4676259 11.2409396,12.6061151 10.9837407,12.7248201 C10.80568,12.823741 10.6078347,12.8830935 10.4099894,12.942446 C10.4099894,12.942446 10.3902049,12.942446 10.3902049,12.9622302 L10.3902049,13.6151079 C10.3902049,13.852518 10.2121441,14.0305755 9.97492761,14.0305755 L9.18334862,14.0305755 C8.94613212,14.0305755 8.76787352,13.852518 8.76787352,13.6151079 L8.76787352,13.0413669 C8.76787352,13.0413669 8.76787352,13.0215827 8.74828684,13.0215827 C8.41175201,12.9622302 8.07541503,12.8830935 7.73907804,12.7446043 C7.40274106,12.6061151 7.10597313,12.4280576 6.82898973,12.1906475 C6.67091135,12.0521583 6.65092897,11.794964 6.76983399,11.6366906 L7.5016637,10.7068345 C7.56121513,10.6276978 7.67972446,10.5683453 7.7786471,10.5485612 C7.87756974,10.528777 7.99627691,10.5683453 8.07541503,10.6276978 C8.27326031,10.7859712 8.49089012,10.9046763 8.72830447,11.0035971 C9.02507239,11.102518 9.32184032,11.1618705 9.61860825,11.1618705 C9.67796183,11.1618705 9.73751326,11.1618705 9.796669,11.1420863 C9.85602259,11.1420863 9.89559165,11.1223022 9.95494523,11.0827338 C9.99451429,11.0629496 10.0342812,11.0233813 10.0538679,11.0035971 C10.0738502,10.9838129 10.0738502,10.9442446 10.0738502,10.8848921 C10.0738502,10.8453237 10.0738502,10.7661871 9.89559165,10.6672662 C9.69774636,10.5683453 9.48011655,10.4892086 9.20313315,10.3902878 C8.96571881,10.3111511 8.70851994,10.2122302 8.45151891,10.1133094 C8.17433767,9.99460432 7.93692333,9.85611511 7.69950898,9.69784173 C7.46229249,9.51978417 7.2644472,9.30215827 7.12575766,9.04496403 C6.96767927,8.78776978 6.88834332,8.45143885 6.88834332,8.09532374 C6.88834332,7.77877698 6.9476969,7.48201439 7.04661954,7.22482014 C7.14554219,6.9676259 7.30381841,6.75 7.48187917,6.57194245 C7.66013777,6.39388489 7.87756974,6.23561151 8.13476861,6.13669065 C8.31282937,6.05755396 8.51067465,5.97841727 8.72830447,5.93884892 C8.72830447,5.93884892 8.74828684,5.93884892 8.74828684,5.91906475 L8.74828684,5.42446043 C8.74828684,5.18705036 8.92614975,5.00899281 9.16356409,5.00899281 L9.95494523,5.00899281 C10.1923596,5.00899281 10.3706182,5.18705036 10.3706182,5.42446043 L10.3706182,5.89928058 C10.3706182,5.89928058 10.3706182,5.91906475 10.3902049,5.91906475 C10.6474037,5.95863309 10.9046026,6.03776978 11.1420169,6.13669065 C11.3794313,6.23561151 11.5970611,6.37410072 11.8148888,6.5323741 C11.893829,6.59172662 11.9533805,6.69064748 11.9729671,6.80935252 C11.9927517,6.92805755 11.9533805,7.02697842 11.893829,7.12589928 L11.2213529,8.01618705 C11.0826634,8.1942446 10.845249,8.23381295 10.6673861,8.11510791 C10.5484811,8.03597122 10.4099894,7.95683453 10.2517132,7.89748201 C10.0342812,7.81834532 9.83643591,7.77877698 9.65817731,7.77877698 C9.57903919,7.77877698 9.49990108,7.77877698 9.42076296,7.79856115 C9.34182269,7.79856115 9.28227126,7.81834532 9.22291768,7.85791367 C9.16356409,7.87769784 9.12399504,7.91726619 9.08442598,7.95683453 C9.06464145,7.99640288 9.04505477,8.03597122 9.04505477,8.07553957 C9.04505477,8.13489209 9.06464145,8.15467626 9.08442598,8.17446043 C9.12399504,8.21402878 9.18334862,8.25359712 9.26248674,8.29316547 C9.34182269,8.33273381 9.46033202,8.39208633 9.55925466,8.43165468 C9.67796183,8.47122302 9.81645353,8.51079137 9.93535855,8.55035971 C10.1727729,8.6294964 10.4299718,8.70863309 10.6869728,8.82733813 C10.964154,8.92625899 11.2013705,9.0647482 11.4387849,9.24280576 C11.6761992,9.42086331 11.8740445,9.63848921 12.012734,9.89568345 C12.1708124,10.1726619 12.2501484,10.5089928 12.2501484,10.8848921 C12.2697351,11.1420863 12.2105793,11.4190647 12.0916743,11.6564748 M9.49990108,4 C6.47306606,4 4,6.47302158 4,9.5 C4,12.5269784 6.47306606,15 9.49990108,15 C12.5269339,15 15,12.5269784 15,9.5 C15,6.47302158 12.5269339,4 9.49990108,4" id="Fill-14" fill="#F48400"></path>
        </g>
    </g>
</svg>