<?xml version="1.0" encoding="UTF-8"?>
<svg width="22px" height="26px" viewBox="0 0 22 26" version="1.1" xmlns="http://www.w3.org/2000/svg" xmlns:xlink="http://www.w3.org/1999/xlink">
    <!-- Generator: Sketch 51.2 (57519) - http://www.bohemiancoding.com/sketch -->
    <title>notification symbol</title>
    <desc>Created with Sketch.</desc>
    <defs>
        <polygon id="path-1" points="0 0 22 0 22 26 0 26"></polygon>
    </defs>
    <g id="notification-symbol" stroke="none" stroke-width="1" fill="none" fill-rule="evenodd">
        <g id="Group-3">
            <mask id="mask-2" fill="white">
                <use xlink:href="#path-1"></use>
            </mask>
            <g id="Clip-2"></g>
            <path d="M19.4053536,20.653984 L2.59527508,20.653984 C1.86101883,20.653984 1.85204016,19.8809789 2.29598585,19.7389001 C2.99432739,19.4499263 3.44326124,18.775654 3.44326124,18.0050571 L3.44326124,12.0329311 C3.44326124,1.86057032 18.4077228,1.59037978 18.4077228,12.2255803 L18.4077228,18.0050571 C18.4077228,18.8228531 18.9065382,19.4980886 19.7545244,19.7860992 C20.1660471,19.9199904 20.0977094,20.653984 19.4053536,20.653984 M10.925492,24.0735077 C9.87797973,24.0735077 8.98011203,23.4473978 8.63094126,22.5804762 L13.2699244,22.5804762 C12.870872,23.4473978 11.9730044,24.0735077 10.925492,24.0735077 M20.4528659,17.9564132 C20.4528659,17.9564132 20.4029844,17.9564132 20.4528659,17.9564132 L20.4029844,12.2255803 C20.4029844,6.9758889 16.8115136,2.88209284 11.9231228,2.44863208 L11.9231228,0.955600579 C11.9231228,-0.317329184 9.92786127,-0.319737299 9.92786127,0.955600579 L9.92786127,2.44863208 C4.84193958,2.92784703 1.44799969,7.1637219 1.44799969,12.0329311 L1.44799969,18.0050571 C-1.0351033,19.1392794 -0.109800759,22.5804762 2.59527508,22.5804762 L6.53591664,22.5804762 C6.93496895,24.5551308 8.73070434,26 10.925492,26 C13.1202797,26 14.9160151,24.5551308 15.3150674,22.5804762 L19.4053536,22.5804762 C22.2855137,22.5804762 22.9589144,18.8483791 20.4528659,17.9564132" id="Fill-1" fill="#FFFFFF" mask="url(#mask-2)"></path>
        </g>
    </g>
</svg>