<?xml version="1.0" encoding="UTF-8"?>
<svg width="16px" height="16px" viewBox="0 0 16 16" version="1.1" xmlns="http://www.w3.org/2000/svg" xmlns:xlink="http://www.w3.org/1999/xlink">
    <!-- Generator: Sketch 51.2 (57519) - http://www.bohemiancoding.com/sketch -->
    <title>pending (active) </title>
    <desc>Created with Sketch.</desc>
    <defs>
        <polygon id="path-1" points="0 1.97530864e-05 15.8814815 1.97530864e-05 15.8814815 15.8814815 0 15.8814815"></polygon>
    </defs>
    <g id="pending-(active)-" stroke="none" stroke-width="1" fill="none" fill-rule="evenodd">
        <g id="Group-3">
            <mask id="mask-2" fill="white">
                <use xlink:href="#path-1"></use>
            </mask>
            <g id="Clip-2"></g>
            <path d="M11.8320593,9.02718025 C11.2394667,9.02718025 10.7456395,8.53335309 10.7456395,7.94076049 C10.7456395,7.3481679 11.2394667,6.85434074 11.8320593,6.85434074 C12.4246519,6.85434074 12.918479,7.3481679 12.918479,7.94076049 C12.918479,8.55310617 12.4246519,9.02718025 11.8320593,9.02718025 M7.94070123,9.02718025 C7.34810864,9.02718025 6.85428148,8.53335309 6.85428148,7.94076049 C6.85428148,7.3481679 7.34810864,6.85434074 7.94070123,6.85434074 C8.53329383,6.85434074 9.02712099,7.3481679 9.02712099,7.94076049 C9.02712099,8.55310617 8.53329383,9.02718025 7.94070123,9.02718025 M4.04934321,9.02718025 C3.45675062,9.02718025 2.96292346,8.53335309 2.96292346,7.94076049 C2.96292346,7.3481679 3.45675062,6.85434074 4.04934321,6.85434074 C4.6419358,6.85434074 5.13576296,7.3481679 5.13576296,7.94076049 C5.13576296,8.55310617 4.66168889,9.02718025 4.04934321,9.02718025 M7.94070123,1.97530864e-05 C3.55551605,1.97530864e-05 -3.95061728e-05,3.55557531 -3.95061728e-05,7.94076049 C-3.95061728e-05,12.3259457 3.55551605,15.8815012 7.94070123,15.8815012 C12.3258864,15.8815012 15.881442,12.3259457 15.881442,7.94076049 C15.9013926,3.55557531 12.3258864,1.97530864e-05 7.94070123,1.97530864e-05" id="Fill-1" fill="#F48400" mask="url(#mask-2)"></path>
        </g>
    </g>
</svg>