<?xml version="1.0" encoding="UTF-8"?>
<svg width="39px" height="38px" viewBox="0 0 39 38" version="1.1" xmlns="http://www.w3.org/2000/svg" xmlns:xlink="http://www.w3.org/1999/xlink">
    <!-- Generator: Sketch 51.2 (57519) - http://www.bohemiancoding.com/sketch -->
    <title>stream logo list view </title>
    <desc>Created with Sketch.</desc>
    <defs></defs>
    <g id="stream-logo-list-view-" stroke="none" stroke-width="1" fill="none" fill-rule="evenodd">
        <g id="Group-2-Copy" transform="translate(0.118367, 0.000000)" fill="#F48400">
            <path d="M2.25582233,21.2352941 C2.25582233,21.8522353 1.75051813,22.3529412 1.12791116,22.3529412 C0.505304202,22.3529412 0,21.8522353 0,21.2352941 L0,5.58879412 C0,2.50073529 2.52426519,0 5.64406747,0 L32.7043482,0 C35.8230225,0 38.3489796,2.50129412 38.3489796,5.59270588 L38.3489796,32.4067353 C38.3489796,35.4959118 35.8235865,38 32.7088598,38 L16.9186675,38 C16.2960605,38 15.7907563,37.4992941 15.7907563,36.8823529 C15.7907563,36.2654118 16.2960605,35.7647059 16.9186675,35.7647059 L32.7088598,35.7647059 C34.5778086,35.7647059 36.0931573,34.2614706 36.0931573,32.4067353 L36.0931573,5.59270588 C36.0931573,3.73629412 34.5778086,2.23529412 32.7043482,2.23529412 L5.64406747,2.23529412 C3.77004307,2.23529412 2.25582233,3.73517647 2.25582233,5.58879412 L2.25582233,21.2352941 Z M1.12791116,26.8235294 C0.505304202,26.8235294 0,26.3228235 0,25.7058824 C0,25.0889412 0.505304202,24.5882353 1.12791116,24.5882353 L2.25582233,24.5882353 C8.48527569,24.5882353 13.534934,29.5919412 13.534934,35.7647059 L13.534934,36.8823529 C13.534934,37.4992941 13.0296298,38 12.4070228,38 C11.7844158,38 11.2791116,37.4992941 11.2791116,36.8823529 L11.2791116,35.7647059 C11.2791116,30.8263824 7.23893385,26.8235294 2.25582233,26.8235294 L1.12791116,26.8235294 Z M1.12791116,31.2941176 C0.505304202,31.2941176 0,30.7934118 0,30.1764706 C0,29.5595294 0.505304202,29.0588235 1.12791116,29.0588235 L2.25582233,29.0588235 C5.99315597,29.0588235 9.02328932,32.0613824 9.02328932,35.7647059 L9.02328932,36.8823529 C9.02328932,37.4992941 8.51798511,38 7.89537815,38 C7.27277119,38 6.76746699,37.4992941 6.76746699,36.8823529 L6.76746699,35.7647059 C6.76746699,33.2958235 4.74737809,31.2941176 2.25582233,31.2941176 L1.12791116,31.2941176 Z M2.25582233,37.4411765 C1.32134793,37.4411765 0.563955582,36.6906765 0.563955582,35.7647059 C0.563955582,34.8387353 1.32134793,34.0882353 2.25582233,34.0882353 C3.19029673,34.0882353 3.94768908,34.8387353 3.94768908,35.7647059 C3.94768908,36.6906765 3.19029673,37.4411765 2.25582233,37.4411765 Z" id="Fill-1"></path>
            <path d="M21.6667325,12.6304621 L27.8199859,23.8087687 C28.192846,24.486125 27.9460031,25.3374935 27.2686469,25.7103536 C27.0618365,25.8241953 26.8295969,25.8838917 26.5935239,25.8838917 L14.2870172,25.8838917 C13.5138185,25.8838917 12.8870172,25.2570903 12.8870172,24.4838917 C12.8870172,24.2478187 12.9467136,24.0155791 13.0605552,23.8087687 L19.2138086,12.6304621 C19.5866687,11.9531059 20.4380373,11.706263 21.1153935,12.0791231 C21.3476746,12.2069854 21.5388702,12.3981811 21.6667325,12.6304621 Z" id="Triangle-2" transform="translate(20.440271, 18.296296) rotate(90.000000) translate(-20.440271, -18.296296) "></path>
        </g>
    </g>
</svg>