<?xml version="1.0" encoding="UTF-8"?>
<svg width="15px" height="46px" viewBox="0 0 15 46" version="1.1" xmlns="http://www.w3.org/2000/svg" xmlns:xlink="http://www.w3.org/1999/xlink">
    <!-- Generator: Sketch 51.2 (57519) - http://www.bohemiancoding.com/sketch -->
    <title>today's largest bet icon</title>
    <desc>Created with Sketch.</desc>
    <defs>
        <polygon id="path-1" points="0 0.0001 14.732 0.0001 14.732 31.9001 0 31.9001"></polygon>
        <polygon id="path-3" points="0.24045 0.1998 10.54045 0.1998 10.54045 10.5 0.24045 10.5"></polygon>
    </defs>
    <g id="today's-largest-bet-icon" stroke="none" stroke-width="1" fill="none" fill-rule="evenodd">
        <g id="Group-7">
            <g id="Group-3">
                <mask id="mask-2" fill="white">
                    <use xlink:href="#path-1"></use>
                </mask>
                <g id="Clip-2"></g>
                <path d="M7.2905,0.0001 C2.8405,0.0001 -0.6095,4.0001 0.0905,8.4001 L3.2405,28.4001 C3.5405,30.4001 5.2905,31.9001 7.3405,31.9001 L7.3905,31.9001 C9.4405,31.9001 11.1905,30.4001 11.4905,28.4001 L14.6405,8.4001 C15.3405,4.0001 11.9405,0.0501 7.4405,0.0001 L7.2905,0.0001 Z" id="Fill-1" fill="#F48400" mask="url(#mask-2)"></path>
            </g>
            <g id="Group-6" transform="translate(2.000000, 34.500000)">
                <mask id="mask-4" fill="white">
                    <use xlink:href="#path-3"></use>
                </mask>
                <g id="Clip-5"></g>
                <path d="M5.39045,0.1998 C8.23445,0.1998 10.54045,2.5058 10.54045,5.3503 C10.54045,8.1943 8.23445,10.5003 5.39045,10.5003 C2.54645,10.5003 0.24045,8.1943 0.24045,5.3503 C0.24045,2.5058 2.54645,0.1998 5.39045,0.1998" id="Fill-4" fill="#F48400" mask="url(#mask-4)"></path>
            </g>
        </g>
    </g>
</svg>