<?xml version="1.0" encoding="UTF-8"?>
<svg width="45px" height="30px" viewBox="0 0 45 30" version="1.1" xmlns="http://www.w3.org/2000/svg" xmlns:xlink="http://www.w3.org/1999/xlink">
    <!-- Generator: Sketch 51.2 (57519) - http://www.bohemiancoding.com/sketch -->
    <title>today's betting record icon </title>
    <desc>Created with Sketch.</desc>
    <defs>
        <polygon id="path-1" points="0 0 45 0 45 30 0 30"></polygon>
    </defs>
    <g id="today's-betting-record-icon-" stroke="none" stroke-width="1" fill="none" fill-rule="evenodd">
        <g id="Group-3">
            <mask id="mask-2" fill="white">
                <use xlink:href="#path-1"></use>
            </mask>
            <g id="Clip-2"></g>
            <path d="M39.3942192,0 C36.3001195,0 33.7900684,2.54546457 33.7900684,5.68499945 C33.7900684,7.22473272 34.3936759,8.61897939 35.3748777,9.64234542 L29.2263392,19.9256034 C28.9025317,19.8512069 28.5662283,19.8076711 28.2212322,19.8076711 C27.0917092,19.8076711 26.0632402,20.2325581 25.2727371,20.9280282 L16.3104422,15.5180205 C16.3338042,15.3444285 16.3517331,15.1691833 16.3517331,14.9878761 C16.3517331,12.9246115 14.7011844,11.2515155 12.6648919,11.2515155 C10.6302293,11.2515155 8.98076712,12.9251626 8.98076712,14.9878761 C8.98076712,15.6249311 9.13778114,16.2239612 9.4143214,16.7491458 L3.58035423,23.9716742 C3.39345865,23.9336493 3.19841355,23.9138102 3.00065196,23.9138102 C1.34304031,23.9138102 0,25.2782982 0,26.9569051 C0,28.6382674 1.34304031,30 3.00065196,30 C4.6566337,30 5.99967401,28.6377163 5.99967401,26.9569051 C5.99967401,26.5452441 5.91872214,26.1523201 5.77094425,25.791359 L11.6065413,18.5682795 C11.9417581,18.6702304 12.297077,18.7264411 12.6648919,18.7264411 C13.4896229,18.7264411 14.2480713,18.449245 14.8614582,17.985782 L23.8221232,23.3963408 C23.7536672,23.7126639 23.7150929,24.0394577 23.7150929,24.3789265 C23.7150929,26.9040009 25.7323698,28.9490797 28.2212322,28.9490797 C30.7090079,28.9490797 32.7273714,26.9040009 32.7273714,24.3789265 C32.7273714,23.2475477 32.3209822,22.2131599 31.6483755,21.415739 L37.7947408,11.1335832 C38.3016407,11.2884382 38.8378789,11.3722032 39.3936759,11.3722032 C42.4894055,11.3722032 44.9999999,8.82673868 44.9999999,5.68499945 C45.0005432,2.54546457 42.4899488,0 39.3942192,0" id="Fill-1" fill="#F48400" mask="url(#mask-2)"></path>
        </g>
    </g>
</svg>