<?xml version="1.0" encoding="UTF-8"?>
<svg width="48px" height="25px" viewBox="0 0 48 25" version="1.1" xmlns="http://www.w3.org/2000/svg" xmlns:xlink="http://www.w3.org/1999/xlink">
    <!-- Generator: Sketch 51.2 (57519) - http://www.bohemiancoding.com/sketch -->
    <title>toda's earning icon</title>
    <desc>Created with Sketch.</desc>
    <defs>
        <polygon id="path-1" points="5e-05 -7.10542736e-15 48 -7.10542736e-15 48 24.6938265 5e-05 24.6938265"></polygon>
    </defs>
    <g id="toda's-earning-icon" stroke="none" stroke-width="1" fill="none" fill-rule="evenodd">
        <g id="Group-3">
            <mask id="mask-2" fill="white">
                <use xlink:href="#path-1"></use>
            </mask>
            <g id="Clip-2"></g>
            <path d="M19.55005,7.95913265 C17.20005,7.95913265 15.25005,9.94892857 15.25005,12.3468878 C15.25005,14.7448469 17.20005,16.7346429 19.55005,16.7346429 C21.90005,16.7346429 23.85005,14.7448469 23.85005,12.3468878 C23.85005,9.94892857 21.90005,7.95913265 19.55005,7.95913265 Z M19.55005,4.79586735 C23.65005,4.79586735 26.95005,8.16321429 26.95005,12.3468878 C26.95005,16.5305612 23.65005,19.8979082 19.55005,19.8979082 C15.45005,19.8979082 12.15005,16.5305612 12.15005,12.3468878 C12.10005,8.16321429 15.45005,4.79586735 19.55005,4.79586735 Z M47.20005,16.122398 L43.70005,16.122398 C43.25005,16.122398 42.90005,16.4795408 42.90005,16.9387245 L42.90005,23.8775 C42.90005,24.3366837 43.25005,24.6938265 43.70005,24.6938265 L47.20005,24.6938265 C47.65005,24.6938265 48.00005,24.3366837 48.00005,23.8775 L48.00005,16.9387245 C48.00005,16.4795408 47.65005,16.122398 47.20005,16.122398 Z M40.45005,6.63260204 L36.95005,6.63260204 C36.50005,6.63260204 36.15005,6.9897449 36.15005,7.44892857 L36.15005,23.8775 C36.15005,24.3366837 36.50005,24.6938265 36.95005,24.6938265 L40.45005,24.6938265 C40.90005,24.6938265 41.25005,24.3366837 41.25005,23.8775 L41.25005,7.44892857 C41.25005,6.9897449 40.90005,6.63260204 40.45005,6.63260204 Z M33.70005,12.4489286 L30.20005,12.4489286 C29.75005,12.4489286 29.40005,12.8060714 29.40005,13.2652551 L29.40005,23.8775 C29.40005,24.3366837 29.75005,24.6938265 30.20005,24.6938265 L33.70005,24.6938265 C34.15005,24.6938265 34.50005,24.3366837 34.50005,23.8775 L34.50005,13.2652551 C34.50005,12.8060714 34.15005,12.4489286 33.70005,12.4489286 Z M39.05005,4.59178571 L39.05005,3.46933673 C39.05005,1.58158163 37.55005,-5.10204082e-05 35.65005,-5.10204082e-05 L3.40005,-5.10204082e-05 C1.55005,-5.10204082e-05 5e-05,1.53056122 5e-05,3.46933673 L5e-05,21.2244388 C5e-05,23.1121939 1.50005,24.6938265 3.40005,24.6938265 L27.55005,24.6938265 C27.50005,24.4387245 27.45005,24.1836224 27.45005,23.8775 L27.45005,21.7346429 L6.85005,21.7346429 C6.90005,21.5305612 6.90005,21.3264796 6.90005,21.0713776 C6.90005,19.132602 5.35005,17.5509694 3.45005,17.5509694 C3.25005,17.5509694 3.05005,17.5509694 2.85005,17.6019898 L2.85005,7.04076531 C3.05005,7.09178571 3.25005,7.09178571 3.45005,7.09178571 C5.35005,7.09178571 6.90005,5.51015306 6.90005,3.57137755 C6.90005,3.36729592 6.90005,3.11219388 6.85005,2.90811224 L32.00005,2.90811224 C31.95005,3.16321429 31.90005,3.46933673 31.90005,3.77545918 C31.90005,5.30607143 32.85005,6.58158163 34.20005,7.09178571 C34.35005,5.66321429 35.55005,4.59178571 37.00005,4.59178571 L39.05005,4.59178571 Z M8.75005,10.255051 C9.90005,10.255051 10.80005,11.1734184 10.80005,12.3468878 C10.80005,13.5203571 9.90005,14.4387245 8.75005,14.4387245 C7.60005,14.4387245 6.70005,13.5203571 6.70005,12.3468878 C6.70005,11.1734184 7.60005,10.255051 8.75005,10.255051 Z" id="Fill-1" fill="#F48400" mask="url(#mask-2)"></path>
        </g>
    </g>
</svg>