<?xml version="1.0" encoding="UTF-8"?>
<svg width="20px" height="20px" viewBox="0 0 20 20" version="1.1" xmlns="http://www.w3.org/2000/svg" xmlns:xlink="http://www.w3.org/1999/xlink">
    <!-- Generator: Sketch 51.2 (57519) - http://www.bohemiancoding.com/sketch -->
    <title>transactions (active) </title>
    <desc>Created with Sketch.</desc>
    <defs>
        <polygon id="path-1" points="0 20 20 20 20 0 0 0"></polygon>
    </defs>
    <g id="transactions-(active)-" stroke="none" stroke-width="1" fill="none" fill-rule="evenodd">
        <g id="Group-9">
            <path d="M13.0164,2.27744 L13.0164,1.67524 C13.0164,0.75164 12.2648,4e-05 11.341,4e-05 L1.6754,4e-05 C0.7516,4e-05 0,0.75164 0,1.67524 L0,2.27744 L13.0164,2.27744 Z" id="Fill-1" fill="#F48400"></path>
            <mask id="mask-2" fill="white">
                <use xlink:href="#path-1"></use>
            </mask>
            <g id="Clip-4"></g>
            <path d="M2.1708,7.0872 L7.1776,7.0872 L7.1776,5.4872 L2.1708,5.4872 L2.1708,7.0872 Z M0,3.8774 L0,7.1246 C0,8.0486 0.7516,8.8 1.6754,8.8 L11.341,8.8 C12.2648,8.8 13.0164,8.0484 13.0164,7.1246 L13.0164,3.8774 L0,3.8774 Z" id="Fill-3" fill="#F48400" mask="url(#mask-2)"></path>
            <path d="M6.26436,17.1418 L3.40616,14.2836 L3.40616,16.3418 L3.32616,16.3418 C2.37436,16.3418 1.59996,15.5676 1.59996,14.6158 L1.59996,10.6582 L-4e-05,10.6582 L-4e-05,14.6158 C-4e-05,16.4498 1.49196,17.9418 3.32616,17.9418 L3.40616,17.9418 L3.40616,20 L6.26436,17.1418 Z" id="Fill-5" fill="#F48400" mask="url(#mask-2)"></path>
            <path d="M20,13.47734 L20,12.87514 C20,11.95134 19.2484,11.19994 18.3246,11.19994 L8.659,11.19994 C7.7352,11.19994 6.9836,11.95154 6.9836,12.87514 L6.9836,13.47734 L20,13.47734 Z" id="Fill-6" fill="#F48400" mask="url(#mask-2)"></path>
            <path d="M9.1542,18.287 L12.761,18.287 L12.761,16.687 L9.1542,16.687 L9.1542,18.287 Z M6.9836,15.0774 L6.9836,18.3246 C6.9836,19.2484 7.7352,20 8.659,20 L18.3246,20 C19.2484,20 20,19.2484 20,18.3246 L20,15.0774 L6.9836,15.0774 Z" id="Fill-7" fill="#F48400" mask="url(#mask-2)"></path>
            <path d="M13.73554,2.8582 L16.59374,5.7164 L16.59374,3.6582 L16.67374,3.6582 C17.62554,3.6582 18.39994,4.4324 18.39994,5.3842 L18.39994,9.3418 L19.99994,9.3418 L19.99994,5.3842 C19.99994,3.5502 18.50794,2.0582 16.67374,2.0582 L16.59374,2.0582 L16.59374,0 L13.73554,2.8582 Z" id="Fill-8" fill="#F48400" mask="url(#mask-2)"></path>
        </g>
    </g>
</svg>