<?xml version="1.0" encoding="UTF-8"?>
<svg width="22px" height="20px" viewBox="0 0 22 20" version="1.1" xmlns="http://www.w3.org/2000/svg" xmlns:xlink="http://www.w3.org/1999/xlink">
    <!-- Generator: Sketch 51.2 (57519) - http://www.bohemiancoding.com/sketch -->
    <title>wallet</title>
    <desc>Created with Sketch.</desc>
    <defs></defs>
    <g id="wallet" stroke="none" stroke-width="1" fill="none" fill-rule="evenodd">
        <path d="M15.125,11.4285714 C15.5051875,11.4285714 15.8125,11.1085714 15.8125,10.7142857 C15.8125,10.32 15.5051875,10 15.125,10 C14.7448125,10 14.4375,10.32 14.4375,10.7142857 C14.4375,11.1085714 14.7448125,11.4285714 15.125,11.4285714 Z M15.125,12.1428571 C14.366,12.1428571 13.75,11.5028571 13.75,10.7142857 C13.75,9.92571429 14.366,9.28571429 15.125,9.28571429 C15.884,9.28571429 16.5,9.92571429 16.5,10.7142857 C16.5,11.5028571 15.884,12.1428571 15.125,12.1428571 Z M15.125,8.57142857 C13.9858125,8.57142857 13.0625,9.53071429 13.0625,10.7142857 C13.0625,11.8978571 13.9858125,12.8571429 15.125,12.8571429 L20.625,12.8571429 C21.0051875,12.8571429 21.3125,12.5371429 21.3125,12.1428571 L21.3125,9.28571429 C21.3125,8.89142857 21.0051875,8.57142857 20.625,8.57142857 L15.125,8.57142857 Z M19.9375,7.85714286 L19.9375,5 C19.9375,4.21142857 19.3215,3.57142857 18.5625,3.57142857 L3.09375,3.57142857 C2.904,3.57142857 2.75,3.41142857 2.75,3.21428571 C2.75,3.01714286 2.904,2.85714286 3.09375,2.85714286 L16.5,2.85714286 L16.5,1.42857143 L2.75,1.42857143 C1.991,1.42857143 1.375,2.06857143 1.375,2.85714286 L1.375,17.1428571 C1.375,17.9314286 1.991,18.5714286 2.75,18.5714286 L18.5625,18.5714286 C19.3215,18.5714286 19.9375,17.9314286 19.9375,17.1428571 L19.9375,13.5714286 L15.125,13.5714286 C13.6063125,13.5714286 12.375,12.2921429 12.375,10.7142857 C12.375,9.13642857 13.6063125,7.85714286 15.125,7.85714286 L19.9375,7.85714286 Z M21.3125,8.04857143 C21.723625,8.295 22,8.75714286 22,9.28571429 L22,12.1428571 C22,12.6714286 21.723625,13.1335714 21.3125,13.38 L21.3125,17.1428571 C21.3125,18.7207143 20.0811875,20 18.5625,20 L2.75,20 C1.2313125,20 0,18.7207143 0,17.1428571 L0,2.85714286 C0,1.27928571 1.2313125,0 2.75,0 L16.5,0 C17.259,0 17.875,0.64 17.875,1.42857143 L17.875,2.14285714 L18.5625,2.14285714 C20.0811875,2.14285714 21.3125,3.42214286 21.3125,5 L21.3125,8.04857143 Z" id="Fill-1" fill="#FFFFFF"></path>
    </g>
</svg>