<?xml version="1.0" encoding="UTF-8"?>
<svg width="26px" height="23px" viewBox="0 0 26 23" version="1.1" xmlns="http://www.w3.org/2000/svg" xmlns:xlink="http://www.w3.org/1999/xlink">
    <!-- Generator: Sketch 51.2 (57519) - http://www.bohemiancoding.com/sketch -->
    <title>Bets icon (active) </title>
    <desc>Created with Sketch.</desc>
    <defs></defs>
    <g id="Bets-icon-(active)-" stroke="none" stroke-width="1" fill="none" fill-rule="evenodd">
        <g id="Group-25" transform="translate(0.000000, 0.800000)" fill="#F48400">
            <path d="M2.25,5.4 C2.4984,5.4 2.7,5.19885 2.7,4.95045 L2.7,4.95 C2.7,3.3588 3.41145,2.25 4.05,2.25 C4.2984,2.25 4.5,2.0484 4.5,1.8 C4.5,1.5516 4.2984,1.35 4.05,1.35 C2.7882,1.35 1.8,2.9313 1.8,4.95 C1.8,5.1984 2.00115,5.4 2.24955,5.4 L2.25,5.4 Z" id="Fill-1"></path>
            <path d="M4.5,4.95 C4.7484,4.95 4.95,4.74885 4.95,4.50045 L4.95,4.5 C4.9509,3.5064 5.7564,2.7009 6.75,2.7 C6.9984,2.7 7.2,2.4984 7.2,2.25 C7.2,2.0016 6.9984,1.8 6.75,1.8 C5.2596,1.80135 4.05135,3.0096 4.05,4.5 C4.05,4.7484 4.25115,4.95 4.49955,4.95 L4.5,4.95 Z" id="Fill-3"></path>
            <path d="M3.6,9.45 C4.0968,9.45 4.5,9.8532 4.5,10.35 C4.5,10.8468 4.0968,11.25 3.6,11.25 C3.1032,11.25 2.7,10.8468 2.7,10.35 C2.7,9.8532 3.1032,9.45 3.6,9.45" id="Fill-5"></path>
            <path d="M10.8,9.45 C11.2968,9.45 11.7,9.8532 11.7,10.35 C11.7,10.8468 11.2968,11.25 10.8,11.25 C10.3032,11.25 9.9,10.8468 9.9,10.35 C9.9,9.8532 10.3032,9.45 10.8,9.45" id="Fill-7"></path>
            <path d="M10.8,17.55 C11.2968,17.55 11.7,17.9532 11.7,18.45 C11.7,18.9468 11.2968,19.35 10.8,19.35 C10.3032,19.35 9.9,18.9468 9.9,18.45 C9.9,17.9532 10.3032,17.55 10.8,17.55" id="Fill-9"></path>
            <path d="M7.2,13.5 C7.6968,13.5 8.1,13.9032 8.1,14.4 C8.1,14.8968 7.6968,15.3 7.2,15.3 C6.7032,15.3 6.3,14.8968 6.3,14.4 C6.3,13.9032 6.7032,13.5 7.2,13.5" id="Fill-11"></path>
            <path d="M3.6,17.55 C4.0968,17.55 4.5,17.9532 4.5,18.45 C4.5,18.9468 4.0968,19.35 3.6,19.35 C3.1032,19.35 2.7,18.9468 2.7,18.45 C2.7,17.9532 3.1032,17.55 3.6,17.55" id="Fill-13"></path>
            <path d="M14.4,2.25 C14.8968,2.25 15.3,2.6532 15.3,3.15 C15.3,3.6468 14.8968,4.05 14.4,4.05 C13.9032,4.05 13.5,3.6468 13.5,3.15 C13.5,2.6532 13.9032,2.25 14.4,2.25" id="Fill-15"></path>
            <path d="M18,6.3 C18.4968,6.3 18.9,6.7032 18.9,7.2 C18.9,7.6968 18.4968,8.1 18,8.1 C17.5032,8.1 17.1,7.6968 17.1,7.2 C17.1,6.7032 17.5032,6.3 18,6.3" id="Fill-17"></path>
            <path d="M21.6,13.05 C20.60595,13.05 19.8,12.24405 19.8,11.25 C19.8,10.25595 20.60595,9.45 21.6,9.45 C22.59405,9.45 23.4,10.25595 23.4,11.25 C23.3991,12.2436 22.5936,13.0491 21.6,13.05 M18,9 C17.00595,9 16.2,8.19405 16.2,7.2 C16.2,6.20595 17.00595,5.4 18,5.4 C18.99405,5.4 19.8,6.20595 19.8,7.2 C19.7991,8.1936 18.9936,8.9991 18,9 M14.4,4.95 C13.40595,4.95 12.6,4.14405 12.6,3.15 C12.6,2.15595 13.40595,1.35 14.4,1.35 C15.39405,1.35 16.2,2.15595 16.2,3.15 C16.1991,4.1436 15.3936,4.9491 14.4,4.95 M22.95,0 L13.05,0 C11.808,0.00135 10.80135,1.008 10.8,2.25 L10.8,6.3 L12.15,6.3 C13.8888,6.30225 15.29775,7.7112 15.3,9.45 L15.3,14.4 L22.95,14.4 C24.192,14.39865 25.19865,13.392 25.2,12.15 L25.2,2.25 C25.19865,1.008 24.192,0.00135 22.95,0" id="Fill-19"></path>
            <path d="M21.6,10.35 C22.0968,10.35 22.5,10.7532 22.5,11.25 C22.5,11.7468 22.0968,12.15 21.6,12.15 C21.1032,12.15 20.7,11.7468 20.7,11.25 C20.7,10.7532 21.1032,10.35 21.6,10.35" id="Fill-21"></path>
            <path d="M10.8,12.15 C9.80595,12.15 9,11.34405 9,10.35 C9,9.35595 9.80595,8.55 10.8,8.55 C11.79405,8.55 12.6,9.35595 12.6,10.35 C12.5991,11.3436 11.7936,12.1491 10.8,12.15 M10.8,20.25 C9.80595,20.25 9,19.44405 9,18.45 C9,17.45595 9.80595,16.65 10.8,16.65 C11.79405,16.65 12.6,17.45595 12.6,18.45 C12.5991,19.4436 11.7936,20.2491 10.8,20.25 M7.2,16.2 C6.20595,16.2 5.4,15.39405 5.4,14.4 C5.4,13.40595 6.20595,12.6 7.2,12.6 C8.19405,12.6 9,13.40595 9,14.4 C8.9991,15.3936 8.1936,16.1991 7.2,16.2 M3.6,20.25 C2.60595,20.25 1.8,19.44405 1.8,18.45 C1.8,17.45595 2.60595,16.65 3.6,16.65 C4.59405,16.65 5.4,17.45595 5.4,18.45 C5.3991,19.4436 4.5936,20.2491 3.6,20.25 M3.6,8.55 C4.59405,8.55 5.4,9.35595 5.4,10.35 C5.4,11.34405 4.59405,12.15 3.6,12.15 C2.60595,12.15 1.8,11.34405 1.8,10.35 C1.8009,9.3564 2.6064,8.5509 3.6,8.55 M12.15,7.2 L2.25,7.2 C1.008,7.20135 0.00135,8.208 0,9.45 L0,19.35 C0.00135,20.592 1.008,21.59865 2.25,21.6 L12.15,21.6 C13.392,21.59865 14.39865,20.592 14.4,19.35 L14.4,9.45 C14.39865,8.208 13.392,7.20135 12.15,7.2" id="Fill-23"></path>
        </g>
    </g>
</svg>