<?xml version="1.0" encoding="UTF-8"?>
<svg width="27px" height="25px" viewBox="0 0 27 25" version="1.1" xmlns="http://www.w3.org/2000/svg" xmlns:xlink="http://www.w3.org/1999/xlink">
    <!-- Generator: Sketch 51.2 (57519) - http://www.bohemiancoding.com/sketch -->
    <title>history icon (active)</title>
    <desc>Created with Sketch.</desc>
    <defs>
        <polygon id="path-1" points="0 0 26.1 0 26.1 23.4 0 23.4"></polygon>
    </defs>
    <g id="history-icon" stroke="none" stroke-width="1" fill="none" fill-rule="evenodd">
        <g id="Group-3" transform="translate(0.450000, 0.900000)">
            <mask id="mask-2" fill="white">
                <use xlink:href="#path-1"></use>
            </mask>
            <g id="Clip-2"></g>
            <path d="M14.1219625,4.89475161 C13.7267744,4.9374 13.4298078,5.27028387 13.4386324,5.66129032 L13.4386324,11.7 C13.4386324,11.929471 13.5441438,12.1464871 13.7263907,12.2899065 L17.5631688,15.3092613 C17.8942827,15.5696806 18.3773331,15.5168419 18.6420708,15.191129 C18.9071922,14.8654161 18.8534773,14.3902452 18.5223633,14.1298258 L14.9733436,11.3342806 L14.9733436,5.66129032 C14.9821682,5.24461935 14.6460664,4.89928065 14.2224861,4.89022258 C14.1891062,4.88984516 14.1553425,4.89097742 14.1219625,4.89475161 M14.0621088,0 C8.80073505,0 4.30594954,3.29071935 2.67148208,7.87862903 L1.44870091,5.73224516 C1.29829921,5.45974839 0.99404271,5.30538387 0.681345297,5.34274839 C0.260067065,5.38992581 -0.0426547242,5.76357097 0.0049213238,6.17797742 C0.0171990136,6.2829 0.0513463384,6.38404839 0.105828587,6.47500645 L2.21605652,10.1786226 C2.41633634,10.5341516 2.86677408,10.6696452 3.23510478,10.4854645 L6.98785741,8.59836774 C7.37306993,8.42437742 7.54227184,7.97638065 7.36578005,7.59745161 C7.18928826,7.21852258 6.73347902,7.05208065 6.3482665,7.22569355 C6.32908261,7.23437419 6.31066608,7.24380968 6.29263322,7.25362258 L4.13444556,8.33870323 C5.56479642,4.36749677 9.46142823,1.50967742 14.0621088,1.50967742 C19.8801991,1.50967742 24.5652888,6.06852581 24.5652888,11.7 C24.5652888,17.3314742 19.8801991,21.8903226 14.0621088,21.8903226 C9.08427294,21.8903226 4.92980965,18.5320452 3.83440951,14.047171 C3.76918429,13.6354065 3.37668189,13.3534742 2.9580894,13.4180129 C2.53911324,13.4821742 2.25250592,13.8682742 2.31811482,14.2800387 C2.32463734,14.3211774 2.33461297,14.3615613 2.34765801,14.4008129 C3.60842329,19.5620226 8.38252624,23.4 14.0621088,23.4 C20.6989675,23.4 26.1,18.1584 26.1,11.7 C26.1,5.2416 20.6989675,0 14.0621088,0" id="Fill-1" fill="#9E9E9E" mask="url(#mask-2)"></path>
        </g>
    </g>
</svg>