<?xml version="1.0" encoding="UTF-8"?>
<svg width="26px" height="26px" viewBox="0 0 26 26" version="1.1" xmlns="http://www.w3.org/2000/svg" xmlns:xlink="http://www.w3.org/1999/xlink">
    <!-- Generator: Sketch 51.2 (57519) - http://www.bohemiancoding.com/sketch -->
    <title>stream icon </title>
    <desc>Created with Sketch.</desc>
    <defs></defs>
    <g id="stream-icon-" stroke="none" stroke-width="1" fill="none" fill-rule="evenodd">
        <g id="Group-2" fill="#F48400">
            <path d="M1.52941176,14.5294118 C1.52941176,14.9515294 1.18682353,15.2941176 0.764705882,15.2941176 C0.342588235,15.2941176 0,14.9515294 0,14.5294118 L0,3.82391176 C0,1.71102941 1.71141176,0 3.82658824,0 L22.1730294,0 C24.2874412,0 26,1.71141176 26,3.82658824 L26,22.1730294 C26,24.2866765 24.2878235,26 22.1760882,26 L11.4705882,26 C11.0484706,26 10.7058824,25.6574118 10.7058824,25.2352941 C10.7058824,24.8131765 11.0484706,24.4705882 11.4705882,24.4705882 L22.1760882,24.4705882 C23.4432059,24.4705882 24.4705882,23.4420588 24.4705882,22.1730294 L24.4705882,3.82658824 C24.4705882,2.55641176 23.4432059,1.52941176 22.1730294,1.52941176 L3.82658824,1.52941176 C2.55602941,1.52941176 1.52941176,2.55564706 1.52941176,3.82391176 L1.52941176,14.5294118 Z M0.764705882,18.3529412 C0.342588235,18.3529412 0,18.0103529 0,17.5882353 C0,17.1661176 0.342588235,16.8235294 0.764705882,16.8235294 L1.52941176,16.8235294 C5.75288235,16.8235294 9.17647059,20.2471176 9.17647059,24.4705882 L9.17647059,25.2352941 C9.17647059,25.6574118 8.83388235,26 8.41176471,26 C7.98964706,26 7.64705882,25.6574118 7.64705882,25.2352941 L7.64705882,24.4705882 C7.64705882,21.0917353 4.90788235,18.3529412 1.52941176,18.3529412 L0.764705882,18.3529412 Z M0.764705882,21.4117647 C0.342588235,21.4117647 0,21.0691765 0,20.6470588 C0,20.2249412 0.342588235,19.8823529 0.764705882,19.8823529 L1.52941176,19.8823529 C4.06326471,19.8823529 6.11764706,21.9367353 6.11764706,24.4705882 L6.11764706,25.2352941 C6.11764706,25.6574118 5.77505882,26 5.35294118,26 C4.93082353,26 4.58823529,25.6574118 4.58823529,25.2352941 L4.58823529,24.4705882 C4.58823529,22.7813529 3.21864706,21.4117647 1.52941176,21.4117647 L0.764705882,21.4117647 Z M1.52941176,25.6176471 C0.895852941,25.6176471 0.382352941,25.1041471 0.382352941,24.4705882 C0.382352941,23.8370294 0.895852941,23.3235294 1.52941176,23.3235294 C2.16297059,23.3235294 2.67647059,23.8370294 2.67647059,24.4705882 C2.67647059,25.1041471 2.16297059,25.6176471 1.52941176,25.6176471 Z" id="Fill-1"></path>
            <path d="M14.700959,8.66253475 L18.8615763,16.2903331 C19.1154605,16.7557875 18.943949,17.3389267 18.4784946,17.5928109 C18.3374815,17.6697271 18.1794228,17.7100311 18.0187966,17.7100311 L9.69756201,17.7100311 C9.16736865,17.7100311 8.73756201,17.2802245 8.73756201,16.7500311 C8.73756201,16.5894049 8.77786605,16.4313461 8.85478226,16.2903331 L13.0153995,8.66253475 C13.2692838,8.19708035 13.8524229,8.02556883 14.3178773,8.27945305 C14.4797012,8.36772061 14.6126915,8.50071089 14.700959,8.66253475 Z" id="Triangle-2" transform="translate(13.858179, 12.518519) rotate(90.000000) translate(-13.858179, -12.518519) "></path>
        </g>
    </g>
</svg>