<?xml version="1.0" encoding="UTF-8"?>
<svg width="31px" height="31px" viewBox="0 0 31 31" version="1.1" xmlns="http://www.w3.org/2000/svg" xmlns:xlink="http://www.w3.org/1999/xlink">
    <!-- Generator: Sketch 51.2 (57519) - http://www.bohemiancoding.com/sketch -->
    <title>scorecard(deactivated) </title>
    <desc>Created with Sketch.</desc>
    <defs>
        <polygon id="path-1" points="0 0.20286 29.461425 0.20286 29.461425 30.239622 0 30.239622"></polygon>
    </defs>
    <g id="scorecard(deactivated)-" stroke="none" stroke-width="1" fill="none" fill-rule="evenodd">
        <g id="Group-12">
            <g id="Group-3" transform="translate(0.000000, 0.157644)">
                <mask id="mask-2" fill="white">
                    <use xlink:href="#path-1"></use>
                </mask>
                <g id="Clip-2"></g>
                <path d="M28.436325,27.418482 C28.436325,28.348362 27.5451,29.229102 26.6016,29.230362 C20.05575,29.234142 13.513725,29.232882 6.9666,29.230362 C5.835675,29.230362 5.218575,28.725102 5.129325,27.730962 C5.129325,27.722142 5.12805,27.712062 5.126775,27.701982 L5.126775,26.924562 C7.42815,26.670042 9.231,24.758622 9.231,22.416282 C9.231,20.075202 7.42815,18.162522 5.126775,17.908002 L5.126775,5.795622 C5.126775,5.315562 5.2479,4.952682 5.4876,4.717062 C5.91855,4.292442 6.661875,4.297482 7.05075,4.294962 L8.89695,4.296222 C8.8944,5.184522 8.8944,6.072822 8.89695,6.961122 C8.90205,7.737282 9.3381,8.165682 10.127325,8.165682 L21.219825,8.165682 L23.438325,8.165682 C24.22755,8.165682 24.6636,7.737282 24.6687,6.959862 C24.67125,6.071562 24.67125,5.184522 24.6687,4.294962 L24.848475,4.294962 C25.452825,4.293702 25.88505,4.291182 26.600325,4.297482 C27.543825,4.307562 28.4376,5.189562 28.4376,6.114402 C28.441425,13.217022 28.441425,20.317122 28.436325,27.418482 M1.021275,22.415022 C1.021275,20.467062 2.617575,18.881982 4.586175,18.865602 C4.596375,18.865602 4.6053,18.871902 4.6155,18.871902 C4.6257,18.871902 4.634625,18.866862 4.644825,18.865602 C6.613425,18.880722 8.209725,20.465802 8.209725,22.415022 C8.209725,24.373062 6.598125,25.968222 4.616775,25.968222 C2.635425,25.968222 1.021275,24.374322 1.021275,22.415022 M9.918225,3.714102 C9.918225,3.583062 9.938625,3.532662 9.936075,3.530142 C9.948825,3.522582 10.007475,3.499902 10.160475,3.499902 L10.667925,3.499902 L11.430375,3.499902 C11.919975,3.499902 12.41085,3.498642 12.90045,3.492342 C13.126125,3.488562 13.516275,3.365082 13.671825,3.038742 C14.11425,2.089962 14.79765,1.211742 16.782825,1.211742 C18.768,1.211742 19.4514,2.089962 19.89255,3.037482 C20.044275,3.363822 20.43825,3.488562 20.666475,3.492342 C21.156075,3.498642 21.645675,3.499902 22.134,3.499902 L22.515225,3.499902 L23.4039,3.499902 C23.550525,3.499902 23.61045,3.521322 23.619375,3.521322 L23.62065,3.521322 C23.62575,3.532662 23.64615,3.583062 23.64615,3.714102 C23.649975,4.793922 23.649975,5.875002 23.64615,6.956082 C23.64615,7.077042 23.6283,7.128702 23.63085,7.135002 C23.61555,7.141302 23.562,7.158942 23.43705,7.158942 L16.78155,7.158942 L12.34455,7.158942 L10.12605,7.158942 C9.996,7.158942 9.94245,7.148862 9.9399,7.143822 C9.936075,7.128702 9.918225,7.077042 9.918225,6.956082 C9.9144,5.875002 9.9144,4.793922 9.918225,3.714102 M26.6118,3.289482 C25.88505,3.281922 25.450275,3.281922 24.84465,3.286962 L24.59985,3.288222 C24.455775,2.779182 24.052875,2.494422 23.409,2.491902 L22.13655,2.491902 C21.66735,2.491902 21.199425,2.491902 20.75955,2.486862 C20.24445,1.437282 19.337925,0.295722 17.063325,0.208782 C17.0391,0.205002 17.0136,0.202482 16.989375,0.202482 L16.7841,0.202482 L16.73565,0.202482 C16.721625,0.202482 16.711425,0.201222 16.701225,0.202482 C14.278725,0.228942 13.3365,1.408302 12.80865,2.483082 C12.34965,2.489382 11.889375,2.489382 11.430375,2.489382 L10.157925,2.489382 C9.512775,2.493162 9.109875,2.779182 8.9658,3.288222 L7.0533,3.286962 C6.5892,3.295782 5.4978,3.283182 4.76595,4.003902 C4.32735,4.434822 4.104225,5.038362 4.104225,5.795622 L4.104225,17.906742 C1.80285,18.161262 0,20.073942 0,22.415022 C0,24.758622 1.804125,26.670042 4.106775,26.923302 L4.111875,27.817902 C4.247025,29.333682 5.3142,30.237102 6.965325,30.237102 C10.387425,30.238362 13.806975,30.239622 17.229075,30.239622 C20.352825,30.239622 23.476575,30.239622 26.6016,30.237102 C28.122675,30.235842 29.4576,28.917882 29.4576,27.418482 C29.4627,20.317122 29.4627,13.217022 29.458875,6.113142 C29.456325,4.625082 28.125225,3.304602 26.6118,3.289482" id="Fill-1" fill="#9E9E9E" mask="url(#mask-2)"></path>
            </g>
            <path d="M16.7857575,3.66561 C17.0050575,3.66561 17.2128825,3.75255 17.3722575,3.91005 C17.5329075,4.07007 17.6196075,4.27923 17.6183325,4.50099 C17.6170575,4.96215 17.2498575,5.32251 16.7819325,5.32251 L16.7819325,5.82651 L16.7730075,5.32251 C16.5473325,5.32125 16.3369575,5.23305 16.1814075,5.07429 C16.0258575,4.91679 15.9429825,4.70637 15.9480825,4.48461 C15.9557325,4.03479 16.3305825,3.66813 16.7857575,3.66561 M16.7653575,6.33051 L16.7819325,6.33051 C17.8197825,6.33051 18.6370575,5.52789 18.6408825,4.50477 C18.6421575,4.01337 18.4483575,3.54969 18.0926325,3.19815 C17.7432825,2.85039 17.2766325,2.65761 16.7755575,2.65761 C15.7759575,2.66139 14.9472075,3.47283 14.9268075,4.46571 C14.9178825,4.95963 15.1053075,5.42457 15.4521075,5.77863 C15.7989075,6.13143 16.2668325,6.32673 16.7653575,6.33051" id="Fill-4" fill="#9E9E9E"></path>
            <path d="M7.17162,21.14937 C6.981645,20.94147 6.65907,20.92509 6.451245,21.11157 L3.597795,23.64669 C3.205095,23.20065 2.769045,22.87683 2.743545,22.85793 C2.51787,22.69413 2.197845,22.74201 2.03082,22.96251 C1.86252,23.18679 1.90842,23.50305 2.134095,23.66937 C2.14047,23.67441 2.776695,24.14565 3.082695,24.65343 C3.161745,24.78321 3.294345,24.87015 3.444795,24.89283 C3.470295,24.89661 3.495795,24.89787 3.521295,24.89787 C3.646245,24.89787 3.76737,24.85125 3.862995,24.76809 L7.13337,21.86001 C7.34247,21.67479 7.359045,21.35601 7.17162,21.14937" id="Fill-6" fill="#9E9E9E"></path>
            <path d="M22.8657225,11.850696 L10.6996725,11.850696 C10.4178975,11.850696 10.1896725,12.076236 10.1896725,12.354696 C10.1896725,12.633156 10.4191725,12.858696 10.6996725,12.858696 L22.8657225,12.858696 C23.1474975,12.858696 23.3757225,12.633156 23.3757225,12.354696 C23.3757225,12.076236 23.1474975,11.850696 22.8657225,11.850696" id="Fill-8" fill="#9E9E9E"></path>
            <path d="M22.8657225,14.370696 L10.6996725,14.370696 C10.4178975,14.370696 10.1896725,14.596236 10.1896725,14.874696 C10.1896725,15.153156 10.4191725,15.378696 10.6996725,15.378696 L22.8657225,15.378696 C23.1474975,15.378696 23.3757225,15.153156 23.3757225,14.874696 C23.3757225,14.596236 23.1474975,14.370696 22.8657225,14.370696" id="Fill-10" fill="#9E9E9E"></path>
        </g>
    </g>
</svg>